<svg xmlns="http://www.w3.org/2000/svg" width="377.953" height="377.953" viewBox="0 0 100 100" fill-rule="evenodd" xmlns:v="https://vecta.io/nano"><circle cx="50" cy="50" r="50" fill="#006400" paint-order="stroke fill markers"/><path d="M49.996 7.367C26.072 7.371 6.68 26.766 6.682 50.69c.016 19.777 13.424 37.033 32.584 41.935l3.396-27.182a16.49 16.49 0 0 1-9.15-14.753c-.001-9.106 7.379-16.489 16.484-16.493A16.49 16.49 0 0 1 66.489 50.69a16.49 16.49 0 0 1-9.158 14.753l3.396 27.19c19.167-4.899 32.58-22.16 32.593-41.943A43.32 43.32 0 0 0 49.996 7.367z" fill="#fff" paint-order="stroke fill markers"/></svg>