<?xml version="1.0" encoding="UTF-8" standalone="no"?>
<!-- Created with Inkscape (http://www.inkscape.org/) -->

<svg
   width="158.65118mm"
   height="158.65118mm"
   viewBox="0 0 158.65118 158.65118"
   version="1.1"
   id="svg484"
   inkscape:version="1.2 (dc2aedaf03, 2022-05-15)"
   sodipodi:docname="ANIME LRT.svg"
   xmlns:inkscape="http://www.inkscape.org/namespaces/inkscape"
   xmlns:sodipodi="http://sodipodi.sourceforge.net/DTD/sodipodi-0.dtd"
   xmlns:xlink="http://www.w3.org/1999/xlink"
   xmlns="http://www.w3.org/2000/svg"
   xmlns:svg="http://www.w3.org/2000/svg">
  <sodipodi:namedview
     id="namedview486"
     pagecolor="#ffffff"
     bordercolor="#666666"
     borderopacity="1.0"
     inkscape:showpageshadow="2"
     inkscape:pageopacity="0.0"
     inkscape:pagecheckerboard="0"
     inkscape:deskcolor="#d1d1d1"
     inkscape:document-units="mm"
     showgrid="false"
     inkscape:zoom="0.89323816"
     inkscape:cx="195.9164"
     inkscape:cy="369.44235"
     inkscape:window-width="1440"
     inkscape:window-height="837"
     inkscape:window-x="-8"
     inkscape:window-y="-8"
     inkscape:window-maximized="1"
     inkscape:current-layer="layer1" />
  <defs
     id="defs481">
    <clipPath
       clipPathUnits="userSpaceOnUse"
       id="clipPath60049">
      <circle
         style="font-variation-settings:normal;opacity:0.740933;vector-effect:none;fill:#00ff00;fill-opacity:1;fill-rule:evenodd;stroke-width:1.58459;stroke-linecap:butt;stroke-linejoin:bevel;stroke-miterlimit:4;stroke-dasharray:none;stroke-dashoffset:0;stroke-opacity:0.768627;-inkscape-stroke:none;paint-order:stroke fill markers;stop-color:#000000;stop-opacity:1"
         id="circle60051"
         cx="358.08768"
         cy="27.314945"
         r="79.325592" />
    </clipPath>
    <radialGradient
       inkscape:collect="always"
       xlink:href="#linearGradient1829"
       id="radialGradient59970"
       gradientUnits="userSpaceOnUse"
       cx="226.45306"
       cy="44.745258"
       fx="226.45306"
       fy="44.745258"
       r="2.1337712"
       gradientTransform="translate(141.43903)" />
    <linearGradient
       inkscape:collect="always"
       id="linearGradient1829">
      <stop
         style="stop-color:#772613;stop-opacity:1;"
         offset="0.57840616"
         id="stop1825" />
      <stop
         style="stop-color:#270e07;stop-opacity:1;"
         offset="1"
         id="stop1827" />
    </linearGradient>
    <radialGradient
       inkscape:collect="always"
       xlink:href="#linearGradient1829"
       id="radialGradient59968"
       gradientUnits="userSpaceOnUse"
       gradientTransform="matrix(1.0858896,0,0,1.0858896,104.21373,-6.6445441)"
       cx="226.45306"
       cy="44.745258"
       fx="226.45306"
       fy="44.745258"
       r="2.1337712" />
  </defs>
  <g
     inkscape:label="Layer 1"
     inkscape:groupmode="layer"
     id="layer1"
     transform="translate(-97.03125,-48.019966)">
    <circle
       style="font-variation-settings:normal;vector-effect:none;fill:#5b68ff;fill-opacity:1;fill-rule:evenodd;stroke-width:1.58459;stroke-linecap:butt;stroke-linejoin:bevel;stroke-miterlimit:4;stroke-dasharray:none;stroke-dashoffset:0;stroke-opacity:0.768627;-inkscape-stroke:none;paint-order:stroke fill markers;stop-color:#000000"
       id="path60045"
       cx="176.35684"
       cy="127.34556"
       r="79.325592" />
    <g
       id="g60043"
       clip-path="url(#clipPath60049)"
       transform="translate(-181.73085,100.03061)">
      <path
         style="fill:#25252d;fill-opacity:1;stroke:none;stroke-width:0.264583px;stroke-linecap:butt;stroke-linejoin:miter;stroke-opacity:1"
         d="m 353.9016,97.449808 c 0,0 5.91668,3.718392 6.15054,4.700602 0.23386,0.98222 0.3274,3.06358 0.3274,3.06358 l 0.93544,0.51449 c 0,0 -0.3274,-4.34981 -0.44433,-4.51351 -0.11693,-0.1637 -6.96905,-3.765162 -6.96905,-3.765162 z"
         id="path59826" />
      <path
         style="display:inline;fill:#3e3e4c;fill-opacity:1;stroke:none;stroke-width:0.264583px;stroke-linecap:butt;stroke-linejoin:miter;stroke-opacity:1"
         d="m 310.19301,106.24298 1.63702,-3.71839 2.17491,-3.624844 1.02899,-2.081361 1.88999,-6.066303 -0.33073,-3.96875 14.2875,-19.182291 13.09688,-0.529167 6.48229,4.101042 10.31875,12.633854 -0.39687,2.745052 0.49609,2.182812 2.18281,1.819011 c 0,0 6.7138,2.248958 7.14375,3.075781 0.42995,0.826823 0.56224,1.190625 0.95912,1.455208 0.39687,0.264584 0.76067,0.595313 0.49609,0.79375 -0.26458,0.198438 -0.26458,0.264584 -0.26458,0.264584 0,0 2.91041,1.785937 3.24114,2.877343 0.33073,1.091409 1.35599,3.307289 1.35599,3.307289 l 0.56224,1.98438 0.89297,2.01745 -28.33991,1.15301 -24.41507,-0.93544 z"
         id="path59828" />
      <path
         style="fill:#25252d;fill-opacity:1;stroke:none;stroke-width:0.264583px;stroke-linecap:butt;stroke-linejoin:miter;stroke-opacity:1"
         d="m 360.81168,105.9987 -3.27422,-1.91823 -4.59713,-1.9513 -4.20026,-0.8599 c 0,0 -3.34037,0.29766 -4.06797,0.3638 -0.7276,0.0661 -4.20026,0.39688 -4.20026,0.39688 0,0 5.9862,1.35599 6.94531,1.91823 0.95912,0.56224 3.90261,2.05052 3.90261,2.05052 l -3.73724,0.0331 c 0,0 -1.91823,-1.32292 -2.8112,-1.81901 -0.89297,-0.49609 -3.5388,-1.09141 -3.5388,-1.09141 0,0 2.41432,1.52136 2.61276,1.98438 0.19843,0.46302 0.42995,1.19062 0.42995,1.19062 l 4.59713,0.16537 5.95313,0.16536 z"
         id="path59830" />
      <path
         style="fill:#25252d;fill-opacity:1;stroke:none;stroke-width:0.264583px;stroke-linecap:butt;stroke-linejoin:miter;stroke-opacity:1"
         d="m 330.58304,84.236718 c 0,0 2.34818,1.422135 1.85208,2.116666 -0.49609,0.694532 -3.14193,4.861719 -4.86172,5.357813 -1.71979,0.496094 -8.43359,0.132291 -8.43359,0.132291 l -0.56224,1.653646 c 0,0 3.43958,-0.727604 4.36562,-0.661458 0.92605,0.06615 3.27422,0.03307 3.27422,0.03307 0,0 -1.52135,1.686719 -1.81901,2.579687 -0.29765,0.892969 -1.19062,4.398698 -1.19062,4.398698 0,0 2.3151,0.628389 2.97656,1.256769 0.66146,0.62839 1.88516,2.01745 1.88516,2.01745 0,0 -1.19063,-2.05052 -2.0836,-2.61276 -0.89297,-0.56224 -1.98437,-1.256771 -1.98437,-1.256771 0,0 0.16536,-1.852084 0.59531,-2.612761 0.42995,-0.760677 0.66146,-1.223698 0.66146,-1.223698 0,0 6.91224,2.348177 8.76432,4.82865 1.85208,2.48047 2.28203,4.20026 2.28203,4.20026 0,0 -2.44739,-2.64583 -3.86953,-3.77031 -1.42213,-1.124485 -4.72943,-2.711985 -4.72943,-2.711985 0,0 4.10105,4.729425 5.02709,5.423965 0.92604,0.69453 2.44739,2.18281 2.51354,2.34817 0.0661,0.16537 0.0661,0.29766 0.19844,0.29766 0.13229,0 1.81901,0.13229 1.81901,0.13229 0,0 -0.76068,-3.63802 -2.28203,-5.58932 -1.52136,-1.951307 -5.92006,-5.324744 -5.92006,-5.324744 0,0 2.05052,0.859896 3.175,1.86862 1.12448,1.008724 1.9017,1.868619 1.9017,1.868619 0,0 -2.23243,-3.075781 -2.87735,-3.852994 -0.64492,-0.777214 -1.67018,-1.554427 -1.67018,-1.554427 0,0 2.8112,1.736328 4.23333,3.489192 1.42214,1.752865 2.91042,3.571874 3.37344,4.001824 0.46302,0.42995 3.83646,4.99401 3.83646,4.99401 h 1.5875 c 0,0 -4.0349,-4.66328 -4.89479,-5.52317 -0.8599,-0.859903 -3.73724,-4.33256 -4.00182,-4.927872 -0.26459,-0.595313 -1.7198,-2.745052 -1.7198,-2.745052 0,0 2.31511,1.719791 3.27422,2.711979 0.95912,0.992187 1.88516,2.546615 1.88516,2.546615 0,0 -2.48631,-5.495068 -2.93065,-6.126491 -0.44433,-0.631425 -0.97196,-4.820645 -0.57508,-4.556061 0.39687,0.264583 1.2237,1.058333 1.81901,1.190625 0.59531,0.132291 2.94349,0.46302 2.94349,0.46302 0,0 -2.91042,-1.157552 -3.40651,-1.653645 -0.49609,-0.496094 -0.79375,-1.058334 -0.3638,-0.959115 0.42994,0.09922 1.22369,0.165365 1.22369,0.165365 l -2.91041,-2.248959 z"
         id="path59832" />
      <path
         style="fill:#25252d;fill-opacity:1;stroke:none;stroke-width:0.264583px;stroke-linecap:butt;stroke-linejoin:miter;stroke-opacity:1"
         d="m 338.55361,79.672655 c 0,0 -1.19062,0.694531 -0.92604,1.653646 0.26458,0.959115 2.01745,4.53099 2.01745,4.53099 0,0 -3.10886,-6.151563 -3.34037,-5.820834 -0.23151,0.330729 0.79375,3.836459 1.38907,4.464844 0.59531,0.628385 3.00963,3.274219 3.00963,3.274219 0,0 -3.9026,-3.175 -4.63021,-4.7625 -0.7276,-1.5875 -1.55442,-4.398698 -1.52135,-3.538802 0.0331,0.859896 1.0914,4.431771 1.55443,4.927864 0.46302,0.496094 3.50572,3.208073 3.50572,3.208073 0,0 -4.33255,-2.248958 -5.02708,-4.365625 -0.69453,-2.116666 -1.05833,-5.324739 -1.25677,-4.729427 -0.19844,0.595313 0.52917,6.151563 2.3151,7.242969 1.78594,1.091406 6.87917,3.538802 6.87917,3.538802 l -0.45412,0.646001 c 0,0 -8.40942,-4.184803 -9.8977,-4.813189 -1.48828,-0.628385 -5.72162,-1.785937 -5.72162,-1.785937 l 2.94349,-4.332552 0.66146,-4.365625 1.13984,-5.188905 0.8419,0.420949 c 0,0 1.35639,3.367596 1.44994,3.554685 0.0935,0.18709 0.65481,1.637028 0.65481,1.637028 l 1.49671,1.777341 1.73056,1.496708 z"
         id="path59834" />
      <path
         style="fill:#25252d;fill-opacity:1;stroke:none;stroke-width:0.264583px;stroke-linecap:butt;stroke-linejoin:miter;stroke-opacity:1"
         d="m 354.13546,80.050562 c 0,0 1.14592,1.262849 0.67819,1.543482 -0.46772,0.280632 -0.93544,0.350792 -0.93544,0.350792 0,0 1.75396,3.180506 1.75396,4.186108 0,1.005602 0.18709,5.191712 0.18709,5.191712 l 4.76091,-5.266928 c 0,0 1.90412,3.980693 3.02665,4.635503 1.12253,0.654809 8.40005,4.92257 7.7882,5.071398 -0.61185,0.148828 -1.50482,-0.826823 -1.98438,-0.942578 -0.47956,-0.115755 -2.38125,-0.314193 -3.24114,-0.578776 -0.8599,-0.264583 -1.68672,-0.545703 -2.19935,-0.115755 -0.51263,0.429948 -3.50573,0.363802 -3.50573,0.363802 0,0 0.57877,3.869531 0.57877,5.093229 0,1.223699 0,3.439579 0,3.439579 0,0 -0.66145,-5.754683 -3.40651,-7.970569 -2.74505,-2.215885 -4.20026,-1.752864 -5.98619,-1.752864 -1.78594,0 -3.73724,0.09922 -3.73724,0.09922 l 2.46393,0.429948 c 0,0 -1.63711,0.165365 -1.57097,0.380339 0.0662,0.214974 3.29466,2.610183 4.86153,2.797273 1.56686,0.187087 3.83665,0.328118 3.83665,0.328118 0,0 -3.7665,1.238747 -6.92362,-1.17002 -3.15712,-2.408766 -5.54487,-3.427116 -6.27247,-3.92321 -0.72761,-0.496093 -1.91823,-0.926041 -1.91823,-0.926041 0,0 3.37344,1.389062 3.73724,1.455208 0.3638,0.06615 8.49974,0.06615 8.56588,-0.396875 0.0661,-0.463021 -8.56588,-0.661458 -8.56588,-0.661458 0,0 7.63984,-0.264584 7.60677,-0.661459 -0.0331,-0.396875 -2.64583,-0.496093 -3.24115,-0.496093 -0.59531,0 -4.53099,-0.03307 -4.53099,-0.03307 0,0 6.81302,-0.231511 7.11068,-1.35599 0.29766,-1.124479 0.39688,-1.785937 0.39688,-1.785937 0,0 -0.66146,1.322916 -1.55443,1.455208 -0.89297,0.132292 -6.11849,0.198438 -6.11849,0.198438 0,0 4.79557,-0.165365 5.78776,-0.760678 0.99219,-0.595312 1.71979,-2.282031 1.71979,-2.282031 0,0 -4.06797,1.488281 -5.25859,1.653646 -1.19063,0.165365 -2.41433,0.198438 -2.41433,0.198438 0,0 5.09323,-1.256771 6.35,-2.215886 1.25678,-0.959114 1.5875,-1.620573 1.5875,-1.620573 0,0 -2.54661,1.025261 -3.77031,1.488282 -1.2237,0.46302 -3.14192,1.190624 -3.14192,1.190624 0,0 6.33306,-2.98532 6.63708,-3.429656 0.30402,-0.444336 0.23386,-1.239464 0.23386,-1.239464 0,0 -1.28162,0.535006 -2.90219,-0.589473 -1.62058,-1.124479 -7.40834,-4.630208 -7.90443,-4.53099 -0.4961,0.09922 -0.29766,1.256771 0.62838,1.852084 0.92605,0.595312 4.82865,2.282031 4.82865,2.282031 l -0.3638,0.578776 -9.46418,-3.03018 -4.25626,-3.741775 -1.26285,-3.554685 0.79512,-2.946646 v -2.993419 l 2.29184,-1.356392 2.99342,0.65481 5.3788,3.507912 3.50791,3.274052 2.80633,3.461141 2.80633,0.841899 c 0,0 1.30962,1.777341 1.30962,1.964431 0,0.187089 -0.58465,2.361993 -0.58465,2.361993 z"
         id="path59836" />
      <path
         style="fill:#25252d;fill-opacity:1;stroke:none;stroke-width:0.264583px;stroke-linecap:butt;stroke-linejoin:miter;stroke-opacity:1"
         d="m 363.70036,106.05589 c 0,-0.0936 -1.14591,-1.59026 -1.56686,-2.05798 -0.42095,-0.46772 -1.0056,-0.77174 -1.0056,-0.77174 l 1.77734,-1.61364 1.73057,-1.19269 1.19269,-0.795125 2.57247,-0.397563 3.18051,0.02339 c 0,0 0.59049,0.344945 0.74835,0.339098 0.15786,-0.0058 0.49696,0.04093 0.50865,-0.327406 0.0117,-0.368332 -0.82436,-2.139826 -0.82436,-2.139826 0,0 1.33301,1.274541 1.22777,2.116439 -0.10524,0.841903 -0.58465,4.197803 -0.53788,4.852613 0.0468,0.65481 0.11693,2.08136 0.11693,2.08136 0,0 -0.30402,-1.63703 -0.63143,-2.10475 -0.3274,-0.46772 -1.75395,-2.03459 -1.75395,-2.03459 0,0 1.14592,2.47893 1.19269,2.82972 0.0468,0.35079 0.11693,1.09915 0.11693,1.09915 l -0.91206,-0.0702 c 0,0 -0.21047,-1.89428 -0.56126,-2.61924 -0.3508,-0.72497 -0.6782,-1.66042 -0.6782,-1.66042 0,0 -4.65383,0.44434 -5.28526,1.59026 -0.63142,1.14592 -0.60804,2.8531 -0.60804,2.8531 z"
         id="path59838" />
      <path
         style="fill:#ffffff;fill-opacity:1;stroke:none;stroke-width:0.264583px;stroke-linecap:butt;stroke-linejoin:miter;stroke-opacity:1"
         d="m 352.17103,77.010373 c 0,0 0.14031,2.011204 0.37417,2.174904 0.23387,0.163703 3.97564,2.759559 5.09817,3.414368 1.12253,0.654812 3.64823,1.824115 2.64263,3.016806 -1.0056,1.192691 -2.84775,3.250475 -3.24463,3.87886 -0.39687,0.628386 -1.42213,2.083594 -1.42213,2.083594 0,0 4.20026,-4.663281 4.66328,-4.861719 0.46302,-0.198437 0.9741,-1.235583 0.9741,-1.235583 l 1.27486,-0.08733 0.76067,-0.760677 -0.95911,-1.835547 -5.85391,-3.852995 z"
         id="path59840" />
      <path
         style="fill:#f7f7f7;fill-opacity:1;stroke:none;stroke-width:0.264583px;stroke-linecap:butt;stroke-linejoin:miter;stroke-opacity:1"
         d="m 338.12043,68.534877 c 0,0 5.77604,3.59151 6.81276,4.035819 1.03672,0.444312 1.22185,0.481338 2.2956,1.666166 1.07375,1.184828 4.57651,2.055273 4.7336,3.128706 0.15709,1.07343 -0.31418,2.33013 -0.31418,2.33013 0,0 2.30395,0.863981 1.91123,1.361424 -0.39271,0.497443 -2.72284,0.07854 -5.60278,-1.832687 -2.87994,-1.911231 -8.48272,-6.33586 -8.48272,-6.33586 z"
         id="path59842" />
      <path
         style="fill:#f7f7f7;fill-opacity:1;stroke:none;stroke-width:0.264583px;stroke-linecap:butt;stroke-linejoin:miter;stroke-opacity:1"
         d="m 334.7881,74.570094 c 0.14811,0.03703 7.36815,4.554181 9.18242,5.331725 1.81426,0.777544 3.96177,1.51806 3.96177,1.51806 0,0 -2.88802,5.220647 -3.36936,5.92414 -0.48133,0.70349 -2.51776,2.628836 -2.51776,2.628836 0,0 3.18423,-5.183621 2.96207,-5.887114 -0.22215,-0.70349 -9.99698,-6.109266 -9.99698,-6.109266 z"
         id="path59844" />
      <path
         style="fill:#f7d1c1;fill-opacity:1;stroke:none;stroke-width:0.264583px;stroke-linecap:butt;stroke-linejoin:miter;stroke-opacity:1"
         d="m 336.23211,62.647766 c 0,0 0.81457,2.850991 3.03612,4.55418 2.22155,1.703192 7.22004,4.109871 7.40518,4.924441 0.18512,0.81457 0.22291,1.914162 0.95598,2.581783 0.73308,0.667623 1.2567,1.256702 1.2567,1.256702 0,0 0.89016,-1.793417 0.89016,-1.845779 0,-0.05236 1.42688,-3.822461 1.42688,-3.822461 l 2.20898,0.811543 2.66587,0.925647 6.92383,1.277393 c 0,0 10.51535,-14.958449 10.66345,-15.550864 0.1481,-0.592413 3.70259,-13.181208 3.70259,-13.921727 0,-0.740516 -1.03673,-9.034309 -1.03673,-9.034309 l -18.51293,-4.739312 -15.84707,0.888622 c 0,0 -7.10897,6.516552 -7.10897,7.997587 0,1.481034 -0.1481,12.440689 0.14811,13.329311 0.2962,0.888622 -1.77725,4.739309 -1.77725,4.739309 l 1.33294,4.887415 z"
         id="path59846" />
      <path
         style="fill:#542c54;fill-opacity:1;stroke:none;stroke-width:0.264583px;stroke-linecap:butt;stroke-linejoin:miter;stroke-opacity:1"
         d="m 337.14381,60.635755 c 0,0 0.0524,1.649418 0.65453,2.853753 0.60216,1.204339 1.54469,2.565763 1.54469,2.565763 l -2.88876,-3.611147 -1.85004,-2.777075 -0.39272,-2.618126 0.49744,-0.445079 c 0,0 1.20434,0.916342 1.2567,1.021066 0.0524,0.104725 0.62835,1.073431 0.73308,1.282883 0.10472,0.209449 0.44508,1.727962 0.44508,1.727962 z"
         id="path59848" />
      <path
         style="fill:#542c54;fill-opacity:1;stroke:none;stroke-width:0.264583px;stroke-linecap:butt;stroke-linejoin:miter;stroke-opacity:1"
         d="m 307.23174,73.386018 c 0,0 1.79341,-3.246475 1.89814,-3.469013 0.10472,-0.222541 4.60902,-11.749371 4.84969,-12.656502 0.24066,-0.907135 0.64795,-2.369656 0.64795,-2.369656 l 2.27819,-8.916588 2.90611,-18.405412 1.23052,-3.901005 c 0,0 3.79628,-9.791784 6.20496,-11.676834 2.40867,-1.885049 2.74903,-2.33013 2.74903,-2.33013 l 5.78605,-3.7439176 3.53447,-0.2618124 21.46862,0.052363 8.01089,3.6230076 2.24006,1.6291374 c 0,0 3.18423,3.036121 3.51746,3.40638 0.33323,0.370259 4.70229,6.960863 5.22065,8.071639 0.51836,1.110776 1.99939,5.442801 1.99939,5.442801 l 1.18706,4.767533 0.5498,3.717734 -0.39272,7.409291 c 0,0 0.69229,4.099412 0.72931,5.469369 0.037,1.369957 -1.22675,11.810251 1.23429,14.952001 2.46103,3.141747 5.65515,4.503171 5.65515,4.503171 0,0 -4.8959,-2.461035 -5.62897,-3.167928 -0.73308,-0.706895 -1.09961,-1.256702 -1.09961,-1.256702 0,0 3.14175,6.51913 6.4144,7.880554 3.27266,1.361427 5.21007,1.754145 5.21007,1.754145 0,0 -4.34609,-0.8378 -6.83331,-1.623237 -2.48721,-0.785437 -3.901,-1.701782 -3.901,-1.701782 0,0 0.1309,5.916962 4.3199,9.215798 4.189,3.298835 5.07917,3.717737 5.07917,3.717737 0,0 -8.378,-4.869712 -9.05872,-5.759874 -0.68071,-0.890164 -1.46614,-1.570876 -1.46614,-1.570876 0,0 1.91123,5.157706 4.55553,7.33075 2.64431,2.173041 6.65004,3.979547 6.65004,3.979547 0,0 -6.33586,-2.434854 -8.53509,-4.529354 -2.19922,-2.0945 -3.40356,-3.403563 -3.40356,-3.403563 0,0 0.96871,4.42463 4.29372,7.749648 3.32502,3.325019 5.96933,5.314791 5.96933,5.314791 l -9.11107,-4.398446 -7.22603,-2.827576 -10.62958,-3.927186 -7.01657,-5.131522 -0.30704,-5.84725 0.69886,-0.485965 0.58778,-0.495221 0.52299,-0.47208 c 0,0 1.77661,-1.692741 1.94024,-1.895644 0.16363,-0.202907 0.49744,-0.562899 0.49744,-0.562899 l 2.55619,-2.956488 2.50988,-3.385915 1.65553,-2.649302 0.96267,-3.7211 1.36135,-6.811854 1.36143,-0.942525 1.29597,-4.686443 -0.39021,-1.499418 -4.22095,-1.073748 -8.94175,-2.091962 -4.77634,-2.591811 -1.33293,-0.333232 -9.59536,-0.800915 -1.99632,4.234815 c 0,0 -0.0851,0.680712 -0.0851,1.636326 0,0.955617 0,1.073433 0,1.073433 l 0.0969,2.418572 1.5394,5.376892 -0.69706,0.991558 -0.99044,-1.12929 -0.35464,2.022782 h -0.5498 l -0.23563,0.994887 -1.30906,-1.151975 -0.30109,1.570873 -0.33218,3.311398 -1.64765,2.147499 0.074,1.592112 -1.01822,0.388773 -0.25918,0.555387 2.03643,4.239461 -1.33294,-1.221854 -3.20273,-4.628232 0.88862,3.387866 1.16631,4.183925 0.74052,2.665862 0.9997,1.814266 2.55478,3.684074 -1.48103,-0.38877 -1.55509,-0.907135 -2.38816,-3.073146 -1.19292,-2.010013 -0.0524,0.196358 0.92289,2.729394 0.73307,2.055228 0.0655,0.8378 c 0,0 -0.94253,-0.785437 -0.96871,-0.8378 -0.0262,-0.05236 -0.78544,-1.28288 -0.78544,-1.28288 l -0.12898,2.440297 -0.037,2.166011 -0.37025,2.277092 -1.46252,-2.832479 -0.59242,-3.147197 -0.62944,-1.703192 -0.16661,0.833083 -0.59242,4.220948 -1.88492,5.393224 -2.33013,2.618124 -1.6756,1.727962 c 0,0 -5.57661,3.547557 -5.69442,3.586829 -0.11782,0.03927 -0.91635,0.274905 -0.91635,0.274905 l -2.18613,1.217427 -4.13664,1.675598 -3.35119,-0.314174 -3.05775,0.44472 -0.92564,-1.129289 -2.1475,-4.646748 0.0555,-2.110473 0.72128,-1.813279 1.20406,-2.82421 0.64795,-1.323676 1.00896,-2.073447 0.77168,-1.495587 z"
         id="path59850" />
      <path
         style="fill:#190d19;fill-opacity:1;stroke:none;stroke-width:0.264583px;stroke-linecap:butt;stroke-linejoin:miter;stroke-opacity:1"
         d="m 373.70652,27.09105 c 0,0 1.53099,4.745339 1.89753,7.049288 0.36654,2.303949 0.78543,7.854373 0.78543,7.854373 0,0 0.52363,-6.807123 -0.20944,-10.263047 -0.73308,-3.455924 -2.30395,-9.268159 -2.30395,-9.268159 0,0 3.45592,10.210684 3.66537,12.200457 0.20945,1.989775 0.94252,6.859487 0.94252,6.859487 0,0 0.99489,-7.697285 0.57599,-10.001234 -0.4189,-2.30395 -1.93741,-8.011461 -1.93741,-8.011461 0,0 2.82757,9.26816 2.9323,11.36266 0.10473,2.094497 0.52362,6.126408 0.52362,6.126408 0,0 0.8378,-5.340971 0.68072,-7.068933 -0.15709,-1.727962 -1.36143,-6.231136 -1.36143,-6.231136 0,0 2.30395,6.388224 2.35631,8.692171 0.0524,2.303949 0.62835,5.236249 0.62835,5.236249 0,0 0.20945,-6.650035 -0.15708,-9.058709 -0.36654,-2.408674 -1.46615,-6.388223 -1.46615,-6.388223 0,0 2.25158,7.016572 2.40867,9.687059 0.15709,2.670487 0.31417,7.540196 0.78544,9.006348 0.47126,1.466149 1.83268,4.45081 1.83268,4.45081 l -2.82757,-5.445699 c 0,0 0.68516,1.958263 0.98137,3.32822 0.29621,1.369957 0.70349,2.369656 0.70349,2.369656 l -2.22155,-5.183621 c 0,0 0.77754,5.664956 0.77754,5.813059 0,0.148104 -1.22185,-4.480128 -1.22185,-4.480128 l -0.14811,5.405776 -0.40728,-5.516854 c 0,0 -0.51836,2.925043 -0.51836,3.850691 0,0.925644 -0.14811,2.776939 -0.14811,2.776939 0,0 -0.22215,-3.813664 -0.074,-4.887415 0.14811,-1.07375 0.22216,-1.592111 0.22216,-1.592111 0,0 -0.59242,1.925343 -0.66647,3.961767 -0.074,2.036424 -0.22215,2.813966 -0.22215,2.813966 l -0.22216,-2.702889 c 0,0 -0.29039,2.473304 -0.9711,3.677643 -0.68072,1.204335 -2.35632,3.508285 -2.35632,3.508285 0,0 2.77521,-3.665374 3.19412,-8.482722 0.41889,-4.817348 0.10472,-5.393335 0.10472,-5.393335 0,0 -0.31418,6.178772 -1.51851,8.692171 -1.20434,2.513398 -5.13152,8.220911 -5.13152,8.220911 0,0 3.92718,-7.644924 4.24136,-10.472497 0.31417,-2.827576 0.36653,-4.031911 0.36653,-4.031911 0,0 -5.07916,10.629582 -6.65003,15.551655 -1.57088,4.922075 -1.51851,9.058711 -1.51851,9.058711 0,0 -0.73308,-2.146863 -0.62835,-3.7701 0.10472,-1.623235 0.20945,-2.879934 0.20945,-2.879934 0,0 -1.09962,2.042136 -1.15198,3.927184 -0.0524,1.88505 0.62835,6.964211 0.62835,6.964211 0,0 -1.78032,-5.288611 -1.72796,-6.964211 0.0524,-1.675599 0.36654,-3.455924 0.36654,-3.455924 0,0 -1.57088,3.927186 -1.62324,4.922075 -0.0524,0.994886 -0.0524,4.712623 -0.0524,4.712623 0,0 -0.94253,-4.922075 -0.73308,-5.916961 0.20945,-0.994887 0.73308,-2.827573 0.73308,-2.827573 0,0 -1.46615,1.832686 -1.57088,3.455924 -0.10472,1.623237 -0.4189,4.45081 -0.4189,4.45081 0,0 -0.4189,-5.550424 -0.15708,-6.178772 0.26181,-0.628351 1.20433,-2.133772 1.20433,-2.133772 l 1.26979,-1.479241 1.70178,-2.35631 0.85089,-1.348335 1.04569,-1.749224 0.88862,-3.16571 0.37026,-1.703192 1.09226,-5.701983 c 0,0 1.34198,-1.830853 1.55143,-2.694834 0.20945,-0.863981 0.62835,-3.272655 0.62835,-3.272655 l 0.13434,-5.64012 -0.27769,-3.073146 -0.28864,-2.335218 -0.19636,-1.597054 z"
         id="path59852" />
      <path
         style="fill:#ffffff;fill-opacity:1;stroke:none;stroke-width:0.264583px;stroke-linecap:butt;stroke-linejoin:miter;stroke-opacity:1"
         d="m 366.73515,46.60261 2.99121,1.086519 0.6218,0.130908 0.88362,0.03927 c 0,0 0.70689,-0.8378 0.73308,-0.890164 0.0262,-0.05236 0.30108,-2.081408 0.30108,-2.081408 l -1.04725,-1.387605 -2.12068,-0.445082 -1.6756,0.64144 -0.78544,0.81162 -0.5498,1.335243 v 0.301083 z"
         id="path59854" />
      <path
         style="fill:#ffffff;stroke:none;stroke-width:0.264583px;stroke-linecap:butt;stroke-linejoin:miter;stroke-opacity:1"
         d="m 348.33629,44.377205 c 0,0 2.51178,0.424092 2.93295,0.447233 0.42117,0.02315 1.92535,0 1.92535,0 l 1.59537,-0.172331 0.17018,-0.61526 -0.40581,-1.832686 -1.15197,-0.981798 -1.43997,-0.458171 -2.19922,-0.157088 -2.78831,0.183269 -1.00798,0.43199 -0.0131,1.007978 c 0,0 0.37963,0.863981 0.44508,0.916345 0.0654,0.05236 0.53671,0.654531 0.53671,0.654531 0,0 0.49745,0.340355 0.57599,0.353447 0.0786,0.0131 0.82471,0.222541 0.82471,0.222541 z"
         id="path59856" />
      <path
         style="fill:#c21023;fill-opacity:1;stroke:none;stroke-width:0.264583px;stroke-linecap:butt;stroke-linejoin:miter;stroke-opacity:1"
         d="m 356.47865,60.596483 c 0,0 -1.62323,0.654531 -1.98977,0.837798 -0.36654,0.183269 -1.30586,0.722892 -1.16008,0.857109 0.14579,0.134221 0.24299,0.185129 0.24299,0.185129 l 0.56696,0.259184 c 0,0 0.2083,0.800684 0.4443,1.161684 0.23604,0.361003 0.53688,0.856224 0.53688,0.856224 0,0 0.78928,0.764945 0.80892,0.797671 0.0196,0.03273 0.47126,0.399264 0.47126,0.399264 0,0 0.99228,0.288729 1.02931,0.307242 0.037,0.01852 1.06449,0.185129 1.06449,0.185129 l 0.77755,0.02777 0.62944,-0.185129 0.63869,-0.453567 c 0,0 0.68441,-0.686517 0.80223,-1.059598 0.11781,-0.373084 0.30108,-1.335244 0.30108,-1.335244 l 0.37308,-0.209449 c 0,0 0.42582,-0.728035 0.33325,-1.093666 -0.0926,-0.36563 -0.361,-0.976558 -0.361,-0.976558 l -0.32398,-0.610926 -0.49261,-0.748593 -0.20945,-0.072 -0.216,0.08509 -0.43853,0.215995 -0.26181,0.143997 -0.23564,-0.05891 -0.68725,-0.425445 -0.18982,-0.06545 -0.17018,0.06545 -0.37962,0.124362 -1.03723,0.388385 z"
         id="path59858"
         sodipodi:nodetypes="cssccscscsccccsccscccccccccccccc" />
      <path
         id="path59860"
         style="font-variation-settings:normal;opacity:1;fill:url(#radialGradient59970);fill-opacity:1;fill-rule:evenodd;stroke-width:1.51136;stroke-linecap:butt;stroke-linejoin:bevel;stroke-miterlimit:4;stroke-dasharray:none;stroke-dashoffset:0;stroke-opacity:0.768627;paint-order:stroke fill markers;stop-color:#000000;stop-opacity:1"
         d="m 369.44165,43.279012 c -0.47137,0.0691 -1.49707,0.226343 -1.49707,0.226343 l -0.86093,0.583427 -0.58291,0.545703 c 0,0 -0.33336,0.666807 -0.34261,0.703833 -0.005,0.0215 -0.11052,0.175481 -0.2005,0.304891 a 2.1337712,2.1337712 0 0 0 1.93424,1.235583 2.1337712,2.1337712 0 0 0 2.13424,-2.13372 2.1337712,2.1337712 0 0 0 -0.58446,-1.46606 z" />
      <circle
         style="font-variation-settings:normal;opacity:1;fill:#000000;fill-opacity:1;fill-rule:evenodd;stroke-width:0.850948;stroke-linecap:butt;stroke-linejoin:bevel;stroke-miterlimit:4;stroke-dasharray:none;stroke-dashoffset:0;stroke-opacity:0.768627;paint-order:stroke fill markers;stop-color:#000000;stop-opacity:1"
         id="circle59862"
         cx="367.89209"
         cy="44.745258"
         r="1.2013865" />
      <circle
         style="font-variation-settings:normal;opacity:1;fill:#ffffff;fill-opacity:1;fill-rule:evenodd;stroke-width:1.465;stroke-linecap:butt;stroke-linejoin:bevel;stroke-miterlimit:4;stroke-dasharray:none;stroke-dashoffset:0;stroke-opacity:0.768627;paint-order:stroke fill markers;stop-color:#000000;stop-opacity:1"
         id="circle59864"
         cx="366.95459"
         cy="44.700111"
         r="0.48133624" />
      <path
         style="fill:#d1746d;fill-opacity:1;stroke:none;stroke-width:0.264583px;stroke-linecap:butt;stroke-linejoin:miter;stroke-opacity:1"
         d="m 362.5575,67.359307 c 0,0 7.04283,-6.840664 8.03772,-10.9773 0.99488,-4.136636 1.70999,-9.412862 1.70999,-9.412862 0,0 -1.40294,8.745626 -3.41889,12.044462 -2.01596,3.298835 -6.32882,8.3457 -6.32882,8.3457 z"
         id="path59866"
         sodipodi:nodetypes="cscsc" />
      <path
         style="fill:#000000;fill-opacity:1;stroke:none;stroke-width:0.264583px;stroke-linecap:butt;stroke-linejoin:miter;stroke-opacity:1"
         d="m 365.47191,46.576427 c 0,0 1.03416,-3.743918 3.61301,-3.599921 2.57885,0.143997 4.03191,1.112705 4.11045,1.767234 0.0786,0.654531 -0.91634,3.063205 -1.66251,3.207202 -0.74616,0.143997 -1.87195,-0.274902 -1.87195,-0.274902 0,0 1.16506,0.248722 1.41378,-0.07854 0.24873,-0.327266 1.61015,-2.421766 0.52363,-3.364288 -1.08652,-0.942525 -3.54101,-0.824711 -4.28718,-0.130907 -0.74616,0.693801 -1.83923,2.474126 -1.83923,2.474126 z"
         id="path59868"
         sodipodi:nodetypes="cscscssscc" />
      <path
         style="fill:#000000;fill-opacity:1;stroke:none;stroke-width:0.264583px;stroke-linecap:butt;stroke-linejoin:miter;stroke-opacity:1"
         d="m 365.47191,46.576429 c 0,0 0.54981,-0.072 0.89016,-0.02619 0.34036,0.04582 0.81817,0.20945 0.81817,0.20945 0,0 -1.17162,-0.392718 -0.81817,-1.178155 0.35345,-0.785437 0.81817,-1.381062 0.81817,-1.381062 l -0.98835,0.994889 -0.44508,0.831255 z"
         id="path59870" />
      <path
         id="path59872"
         style="font-variation-settings:normal;opacity:1;fill:url(#radialGradient59968);fill-opacity:1;fill-rule:evenodd;stroke-width:1.64117;stroke-linecap:butt;stroke-linejoin:bevel;stroke-miterlimit:4;stroke-dasharray:none;stroke-dashoffset:0;stroke-opacity:0.768627;paint-order:stroke fill markers;stop-color:#000000;stop-opacity:1"
         d="m 350.95441,40.541711 c -0.0397,0 -1.85707,0.09737 -2.78226,0.144694 a 2.31704,2.31704 0 0 0 -0.37259,1.257288 2.31704,2.31704 0 0 0 2.31717,2.317171 2.31704,2.31704 0 0 0 2.31717,-2.317171 2.31704,2.31704 0 0 0 -0.33021,-1.191658 c -0.51161,-0.0968 -1.11856,-0.210324 -1.14928,-0.210324 z" />
      <path
         style="fill:#000000;fill-opacity:1;stroke:none;stroke-width:0.264583px;stroke-linecap:butt;stroke-linejoin:miter;stroke-opacity:1"
         d="m 355.65218,45.560329 c 0,0 -0.0555,-4.868902 -3.61002,-5.220647 -3.55449,-0.351745 -8.55298,0.536874 -8.47893,0.722002 0.074,0.185129 2.98059,3.258278 4.92444,3.480433 1.94386,0.222155 2.46222,0.240667 2.46222,0.240667 0,0 -2.61032,-0.38877 -3.40638,-0.907134 -0.79605,-0.518361 -2.85099,-2.499244 -2.85099,-2.499244 0,0 6.05373,-0.722005 7.46071,-0.351747 1.40699,0.37026 2.55479,1.481034 2.92505,2.647349 0.37025,1.166315 0.5739,1.888321 0.5739,1.888321 z"
         id="path59874" />
      <path
         style="fill:#000000;fill-opacity:1;stroke:none;stroke-width:0.264583px;stroke-linecap:butt;stroke-linejoin:miter;stroke-opacity:1"
         d="m 347.68175,40.895098 c 0,0 -1.33524,0.222541 -1.41378,0.877072 -0.0785,0.654532 0.65453,1.741054 0.65453,1.741054 l -1.32215,-0.929437 -1.24361,-1.243607 c 0,0 0.26181,-0.183269 0.31417,-0.183269 0.0524,0 1.23052,-0.20945 1.23052,-0.20945 l 0.71999,-0.05236 z"
         id="path59876" />
      <path
         style="fill:#000000;fill-opacity:1;stroke:none;stroke-width:0.264583px;stroke-linecap:butt;stroke-linejoin:miter;stroke-opacity:1"
         d="m 354.07858,41.904023 c 0,0 0.82382,2.036423 0.60167,2.323375 -0.22216,0.286948 -1.08301,0.546131 -1.4255,0.573899 -0.34249,0.02777 -0.43505,0.02777 -0.43505,0.02777 0,0 1.80501,0.05554 2.07345,0.148103 0.26844,0.09257 0.75903,0.583158 0.75903,0.583158 l -0.17587,-1.101522 -0.34249,-1.17557 -0.43506,-0.777544 z"
         id="path59878" />
      <circle
         style="font-variation-settings:normal;opacity:1;fill:#000000;fill-opacity:1;fill-rule:evenodd;stroke-width:0.917942;stroke-linecap:butt;stroke-linejoin:bevel;stroke-miterlimit:4;stroke-dasharray:none;stroke-dashoffset:0;stroke-opacity:0.768627;paint-order:stroke fill markers;stop-color:#000000;stop-opacity:1"
         id="circle59880"
         cx="350.11673"
         cy="41.943867"
         r="1.2959716" />
      <path
         style="fill:#b95054;fill-opacity:1;stroke:none;stroke-width:0.264583px;stroke-linecap:butt;stroke-linejoin:miter;stroke-opacity:1"
         d="m 357.46045,53.723907 c 0,0 -0.36654,1.570874 0.0262,2.0945 0.39272,0.523624 1.72796,1.047247 1.57087,1.047247 -0.15709,0 -2.35631,-0.314174 -2.19922,-1.466149 0.15708,-1.151974 0.60217,-1.675598 0.60217,-1.675598 z"
         id="path59882" />
      <path
         style="fill:#570710;fill-opacity:1;stroke:none;stroke-width:0.264583px;stroke-linecap:butt;stroke-linejoin:miter;stroke-opacity:1"
         d="m 358.5077,55.818407 c -0.0131,0.05236 0.0524,0.23563 0.35345,0.104725 0.30108,-0.130908 0.99488,-0.209452 1.13888,-0.130908 0.144,0.07854 0.75926,0.261813 0.56289,-0.07854 -0.19635,-0.340355 -0.68071,-0.811618 -1.02106,-0.628349 -0.34036,0.183269 -1.03416,0.733076 -1.03416,0.733076 z"
         id="path59884" />
      <path
         style="fill:#b95054;fill-opacity:1;stroke:none;stroke-width:0.264583px;stroke-linecap:butt;stroke-linejoin:miter;stroke-opacity:1"
         d="m 360.91637,56.839474 c 0.20945,0 3.63919,-0.628349 3.24648,-2.33013 -0.39272,-1.701782 -0.9574,-3.284059 -0.9574,-3.284059 0,0 1.44401,3.202739 1.31442,3.684074 -0.12959,0.481336 -0.68498,1.462522 -1.5736,1.666164 -0.88862,0.203642 -2.0299,0.263951 -2.0299,0.263951 z"
         id="path59886" />
      <path
         style="fill:#800b16;fill-opacity:1;stroke:none;stroke-width:0.264583px;stroke-linecap:butt;stroke-linejoin:miter;stroke-opacity:1"
         d="m 353.53326,62.45535 c 0,0 1.04725,-0.09163 1.74105,-0.248721 0.69381,-0.157089 2.05523,-0.09164 2.57886,0.143996 0.52362,0.23563 0.68071,0.340355 0.92943,0.340355 0.24872,0 1.44652,-0.340355 1.77378,-0.07854 0.32727,0.26181 0.99489,0.759256 1.13888,0.726527 0.144,-0.03273 0.50399,-0.47126 0.50399,-0.47126 0,0 -0.13746,0.595621 -0.43198,0.628347 -0.29454,0.03273 -0.9685,-0.431746 -1.57942,-0.431746 -0.61093,0 -1.50881,0.10182 -2.24932,-0.194387 -0.74052,-0.296206 -1.31442,-0.453567 -1.83279,-0.407283 -0.51836,0.04628 -1.55141,0.444338 -1.90486,0.313433 -0.35344,-0.130905 -0.66762,-0.32072 -0.66762,-0.32072 z"
         id="path59888"
         sodipodi:nodetypes="cssssscssssscc" />
      <path
         style="fill:#800b16;fill-opacity:1;stroke:none;stroke-width:0.264583px;stroke-linecap:butt;stroke-linejoin:miter;stroke-opacity:1"
         d="m 355.68012,60.910657 c 0.40581,-0.104725 2.81449,-1.387605 3.27266,-1.348335 0.45817,0.03927 1.08652,0.523626 1.08652,0.523626 0,0 0.86398,-0.589079 1.13888,-0.379629 0.27491,0.209452 0.8509,1.531604 0.8509,1.531604 0,0 -0.74524,-1.13834 -0.95469,-1.112157 -0.20945,0.02619 -0.99806,0.541205 -0.99806,0.541205 0,0 -1.11774,-0.780013 -1.41882,-0.701471 -0.30109,0.07854 -2.97739,0.945157 -2.97739,0.945157 z"
         id="path59890"
         sodipodi:nodetypes="cscscscsc" />
      <path
         style="fill:#800b16;fill-opacity:1;stroke:none;stroke-width:0.264583px;stroke-linecap:butt;stroke-linejoin:miter;stroke-opacity:1"
         d="m 360.90985,65.424705 c 0,0 -0.59241,1.166315 -1.83278,1.12929 -1.24037,-0.03703 -2.7862,-0.28695 -3.30456,-0.897878 -0.51836,-0.610926 -0.9349,-1.369957 -0.9349,-1.369957 0,0 1.15705,1.499547 1.85129,1.666163 0.69423,0.166619 2.31412,0.52762 2.7862,0.342491 0.47208,-0.185129 1.43475,-0.870109 1.43475,-0.870109 z"
         id="path59892"
         sodipodi:nodetypes="csscssc" />
      <path
         style="fill:#800b16;fill-opacity:1;stroke:none;stroke-width:0.264583px;stroke-linecap:butt;stroke-linejoin:miter;stroke-opacity:1"
         d="m 355.29395,62.586255 c 0,0 -0.74616,0.163635 -0.73962,0.575988 0.007,0.412355 0.12436,0.883618 0.12436,0.883618 0,0 -0.34036,-0.556353 -0.43853,-0.850892 -0.0982,-0.294537 -0.11782,-0.530169 -0.11782,-0.530169 0,0 0.37308,0.04582 0.44508,0.02619 0.072,-0.01963 0.49744,-0.111268 0.53672,-0.130905 0.0393,-0.01963 0.18981,0.02619 0.18981,0.02619 z"
         id="path59894" />
      <path
         style="fill:#800b16;fill-opacity:1;stroke:none;stroke-width:0.264583px;stroke-linecap:butt;stroke-linejoin:miter;stroke-opacity:1"
         d="m 361.1644,63.277204 c 0,0 0.34712,0.370261 0.35175,0.499851 0.005,0.12959 -0.0509,0.536874 -0.0509,0.536874 0,0 0.16661,-0.749774 0.17587,-0.796055 0.009,-0.04628 -0.037,-0.07868 -0.037,-0.07868 l -0.18513,-0.06479 -0.16199,-0.06017 z"
         id="path59896" />
      <path
         style="fill:#800b16;fill-opacity:1;stroke:none;stroke-width:0.264583px;stroke-linecap:butt;stroke-linejoin:miter;stroke-opacity:1"
         d="m 354.12486,61.629554 c 0,0 -0.81321,0.484939 -0.81784,0.605271 -0.005,0.120335 0.27634,0.25558 0.27634,0.25558 l 0.61555,0.0093 0.22216,-0.09719 c 0,0 -0.88862,-0.01852 -0.83771,-0.194385 0.0509,-0.175873 0.5415,-0.57853 0.5415,-0.57853 z"
         id="path59898"
         sodipodi:nodetypes="cccccscc" />
      <path
         style="fill:#800b16;fill-opacity:1;stroke:none;stroke-width:0.264583px;stroke-linecap:butt;stroke-linejoin:miter;stroke-opacity:1"
         d="m 361.51527,63.322604 c 0.0687,-0.0033 0.45817,-0.176723 0.61853,-0.490897 0.16036,-0.314177 0.22254,-0.4909 0.22254,-0.4909 0,0 -0.0654,0.34363 -0.11127,0.477808 -0.0458,0.134178 -0.17345,0.395991 -0.17345,0.395991 l -0.13418,0.127633 -0.19636,0.04255 c 0,0 -0.10145,0.0098 -0.11454,0.0065 -0.0131,-0.0033 -0.11127,-0.06873 -0.11127,-0.06873 z"
         id="path59900" />
      <circle
         style="font-variation-settings:normal;opacity:1;fill:#ffffff;fill-opacity:1;fill-rule:evenodd;stroke-width:1.465;stroke-linecap:butt;stroke-linejoin:bevel;stroke-miterlimit:4;stroke-dasharray:none;stroke-dashoffset:0;stroke-opacity:0.768627;paint-order:stroke fill markers;stop-color:#000000;stop-opacity:1"
         id="circle59902"
         cx="348.87646"
         cy="41.505997"
         r="0.48133624" />
      <circle
         style="font-variation-settings:normal;opacity:1;fill:#ffffff;fill-opacity:1;fill-rule:evenodd;stroke-width:1.01423;stroke-linecap:butt;stroke-linejoin:bevel;stroke-miterlimit:4;stroke-dasharray:none;stroke-dashoffset:0;stroke-opacity:0.768627;paint-order:stroke fill markers;stop-color:#000000;stop-opacity:1"
         id="circle59904"
         cx="350.96841"
         cy="42.764877"
         r="0.33323276" />
      <circle
         style="font-variation-settings:normal;opacity:1;fill:#ffffff;fill-opacity:1;fill-rule:evenodd;stroke-width:1.01423;stroke-linecap:butt;stroke-linejoin:bevel;stroke-miterlimit:4;stroke-dasharray:none;stroke-dashoffset:0;stroke-opacity:0.768627;paint-order:stroke fill markers;stop-color:#000000;stop-opacity:1"
         id="circle59906"
         cx="368.77786"
         cy="45.393715"
         r="0.33323276" />
      <path
         id="path59908"
         style="fill:#190d19;fill-opacity:1;stroke:none;stroke-width:0.264583px;stroke-linecap:butt;stroke-linejoin:miter;stroke-opacity:1"
         d="m 362.5816,67.324573 -1.19062,1.154968 -0.75861,0.805119 -2.7032,2.193664 -1.88257,0.467672 -2.17299,-0.444934 -1.51826,-0.733289 -0.94257,-0.444934 -0.86403,1.492416 -0.83819,2.225187 -0.82115,1.924947 c 0,0 3.04686,0.824264 3.1254,1.256254 0.0785,0.431991 7.7236,4.359295 8.43049,5.118551 0.70689,0.759255 2.64393,2.356106 2.35593,2.460831 -0.28799,0.104724 -1.54461,0.680579 -1.54461,0.680579 0,0 1.85903,2.644676 2.90628,3.482475 1.04725,0.8378 2.33009,1.623157 2.33009,1.623157 0,0 -2.12048,-1.989799 -2.61792,-3.429765 -0.49744,-1.439967 -0.54984,-1.911512 -0.54984,-1.911512 0,0 2.33015,3.194158 3.27267,3.822506 0.94253,0.628351 3.5605,2.304252 3.5605,2.304252 0,0 -4.18908,-3.613115 -4.45089,-4.843632 -0.26181,-1.230517 -0.52348,-2.147155 -0.52348,-2.147155 0,0 2.27746,3.849077 3.6127,4.582149 1.33525,0.733075 2.72283,1.596802 2.72283,1.596802 0,0 -3.14177,-2.382205 -3.58686,-4.005441 -0.44508,-1.623235 -0.83768,-2.6448 -0.83768,-2.6448 0,0 1.57082,2.932669 2.09445,3.482475 0.52362,0.549806 1.33532,1.021127 1.33532,1.021127 0,0 -1.85882,-2.147047 -2.09445,-3.220476 -0.23563,-1.07343 -0.34055,-1.570963 -0.34055,-1.570963 0,0 2.33018,4.084563 3.82251,5.105631 1.49233,1.021066 3.48248,2.355929 3.48248,2.355929 0,0 -2.43505,-2.356014 -3.22048,-3.848344 -0.78544,-1.492328 -1.28313,-2.696993 -1.28313,-2.696993 0,0 1.66339,1.990555 2.07068,2.619995 0.40728,0.629437 0.62942,1.258838 0.62942,1.258838 0,0 -0.40744,-1.962444 -0.66663,-2.443779 -0.25918,-0.481337 -0.37,-0.703316 -0.37,-0.703316 0,0 2.48038,4.442783 3.5171,5.109249 l 1.03714,0.666626 c 0,0 -3.25872,-3.517358 -3.99924,-6.738607 -0.74051,-3.221246 -1.35444,-10.293428 -1.35444,-10.293428 0,0 -0.12647,3.369526 -0.0894,4.998661 0.037,1.629138 0.48163,4.07262 0.48163,4.07262 0,0 -1.92549,-5.627687 -2.03657,-7.553028 -0.11108,-1.925345 -0.1111,-3.517614 -0.1111,-3.517614 0,0 -0.55527,4.961422 -0.18501,6.960815 0.37026,1.999396 0.59222,3.03599 0.59222,3.03599 0,0 -2.11055,-5.146239 -2.44378,-7.10861 -0.33323,-1.962367 -0.70332,-4.517037 -0.70332,-4.517037 0,0 0.29618,5.479394 0.62942,6.775297 0.33323,1.295904 0.85181,3.739851 0.88884,3.850928 0.037,0.111078 -1.81458,-4.109659 -1.96268,-5.553666 -0.14811,-1.44401 -0.2222,-2.888196 -0.2222,-2.888196 0,0 -0.25931,3.665451 0.185,5.25756 0.44431,1.592114 0.66662,2.62878 0.66662,2.62878 0,0 -1.86132,-4.215834 -2.42155,-6.741707 0.0494,0.566488 0.10248,1.11932 0.14469,1.428853 0.11108,0.81457 0.53692,2.721281 0.53692,2.721281 0,0 -0.29622,-0.4074 -0.74053,-1.18494 -0.44431,-0.777544 -1.20354,-2.276864 -1.20354,-2.276864 0,0 -0.0742,0.388739 -0.12971,0.944129 -0.0555,0.555385 -0.0186,1.406632 -0.0186,1.406632 0,0 -0.75905,-3.165602 -1.16634,-5.25756 -0.33304,-1.710652 0.002,-3.555936 0.13539,-4.172355 z"
         sodipodi:nodetypes="cccccccccccssscscscscscscscscscscscscscccscccscscscssscsccscscscsc" />
      <path
         style="fill:#d1746d;fill-opacity:1;stroke:none;stroke-width:0.264583px;stroke-linecap:butt;stroke-linejoin:miter;stroke-opacity:1"
         d="m 343.56323,65.128499 c 0.1481,0.111077 10.75601,8.478922 13.49593,7.034913 2.73991,-1.444008 4.36906,-3.721099 4.36906,-3.721099 0,0 -3.83218,4.017306 -6.53507,3.01761 -2.70289,-0.999699 -11.32992,-6.331424 -11.32992,-6.331424 z"
         id="path59910"
         sodipodi:nodetypes="cscsc" />
      <path
         style="fill:#d1746d;fill-opacity:1;stroke:none;stroke-width:0.264583px;stroke-linecap:butt;stroke-linejoin:miter;stroke-opacity:1"
         d="m 349.91317,69.423499 c 0.0555,0.07405 0.81457,0.759031 0.61093,1.610624 -0.20365,0.851596 -1.63947,4.937932 -1.63947,4.937932 0,0 1.19515,-2.253557 1.62095,-3.401359 0.4258,-1.147799 1.12929,-2.110472 1.12929,-2.110472 l -0.96267,-0.870109 z"
         id="path59912"
         sodipodi:nodetypes="cscsccc" />
      <path
         style="fill:#190d19;fill-opacity:1;stroke:none;stroke-width:0.264583px;stroke-linecap:butt;stroke-linejoin:miter;stroke-opacity:1"
         d="m 343.7153,36.91555 c 0,0 -0.4189,4.764984 1.2567,9.215797 1.6756,4.45081 3.3512,6.75476 3.3512,6.75476 0,0 -1.87195,-0.90179 -2.76057,-1.827438 -0.88862,-0.925647 -1.66616,-2.850991 -1.66616,-2.850991 0,0 0.99969,3.628536 2.36965,5.331725 1.36996,1.703189 3.59151,3.776638 3.59151,3.776638 0,0 -3.96177,-2.628836 -5.10957,-4.183922 -1.1478,-1.555089 -1.9994,-3.702587 -1.9994,-3.702587 0,0 1.96237,4.776335 3.1472,6.294398 1.18483,1.51806 2.96207,3.480429 2.96207,3.480429 0,0 -3.66556,-2.33263 -4.81336,-4.035819 -1.1478,-1.703189 -2.77694,-4.813363 -2.77694,-4.813363 0,0 1.77724,5.627933 3.33233,7.405174 1.55508,1.77724 3.70258,3.961767 3.70258,3.961767 0,0 -4.03582,-2.554785 -4.88741,-3.369352 -0.8516,-0.81457 -2.18453,-3.443407 -2.18453,-3.443407 0,0 1.40699,5.146596 2.40668,6.220347 0.9997,1.073748 3.22125,3.369352 3.22125,3.369352 0,0 -5.22064,-3.628536 -5.77603,-4.443103 -0.55539,-0.81457 -1.66616,-4.035819 -1.66616,-4.035819 0,0 0.66646,3.776638 1.51806,5.294699 0.85159,1.51806 2.4437,3.369352 2.4437,3.369352 0,0 -2.22155,-1.481034 -3.07314,-2.258576 -0.8516,-0.777544 -2.29561,-3.480432 -2.29561,-3.480432 0,0 1.44401,3.517458 2.22156,4.628234 0.77754,1.110774 1.96236,4.072845 1.96236,4.072845 0,0 -1.18482,-2.369656 -1.99939,-3.110174 -0.81457,-0.740516 -3.44341,-4.146897 -4.10987,-5.220647 -0.66647,-1.073751 -1.66617,-3.22125 -1.66617,-3.22125 0,0 2.01791,3.424891 2.75843,4.257974 0.74052,0.833083 1.7217,2.036424 1.7217,2.036424 0,0 -1.51853,-2.826263 -2.01598,-3.87351 -0.49744,-1.04725 -1.04725,-5.340975 -1.04725,-5.340975 0,0 0.60217,2.696668 0.8378,3.534468 0.23564,0.837798 0.68071,1.832687 0.68071,1.832687 0,0 -0.91634,-4.712623 -0.94252,-7.226022 -0.0262,-2.513399 0.0262,-3.455924 0.0262,-3.455924 0,0 0.26181,5.73369 0.70689,7.304566 0.44508,1.570874 1.20434,2.670485 1.20434,2.670485 0,0 -0.8378,-4.89589 -0.78544,-6.047864 0.0524,-1.151975 0.288,-4.529357 0.288,-4.529357 0,0 -0.13756,4.48651 0.2327,6.13416 0.37026,1.647651 0.77754,2.499247 0.77754,2.499247 0,0 -0.37026,-4.313516 -0.31472,-5.035519 0.0555,-0.722005 0.247,-5.352031 0.247,-5.352031 0,0 0.10473,6.30968 0.18327,7.121297 0.0785,0.81162 0.81162,2.225406 0.81162,2.225406 0,0 -0.10473,-6.074048 -0.10473,-6.859485 0,-0.785436 -0.20945,-3.455924 -0.20945,-3.455924 0,0 0.44508,2.644307 0.52363,3.560649 0.0785,0.916345 0.28799,3.770098 0.28799,3.770098 0,0 0.44508,-2.539579 0.26181,-3.63919 -0.18326,-1.099614 -0.60217,-3.246475 -0.60217,-3.246475 0,0 0.62836,2.382494 1.17816,3.403561 0.54981,1.021069 1.07343,1.387607 1.07343,1.387607 0,0 -1.04725,-4.267544 -1.20434,-5.367155 -0.15708,-1.099613 -0.1309,-3.429743 -0.1309,-3.429743 0,0 0.4189,5.079161 1.17815,6.257316 0.75926,1.178155 1.1258,1.466149 1.1258,1.466149 0,0 -0.89016,-3.37738 -1.04725,-4.476991 -0.15709,-1.099613 -0.10473,-2.827575 -0.10473,-2.827575 0,0 0.18327,2.356313 0.4189,3.010844 0.23564,0.654532 2.04214,3.848642 2.04214,3.848642 0,0 -0.75925,-1.88505 -0.94252,-2.513398 -0.18327,-0.628351 -0.41891,-1.413788 -0.41891,-1.413788 0,0 0.60218,1.413788 0.81162,1.701781 0.20945,0.287994 0.81162,1.073431 0.81162,1.073431 0,0 -1.33524,-4.42463 -1.30906,-5.655149 0.0262,-1.230519 0.288,-4.529354 0.288,-4.529354 z"
         id="path59914" />
      <path
         style="fill:#190d19;fill-opacity:1;stroke:none;stroke-width:0.264583px;stroke-linecap:butt;stroke-linejoin:miter;stroke-opacity:1"
         d="m 335.14094,57.480914 c 0,0 2.39558,9.647787 4.07118,12.056461 1.6756,2.408674 7.38311,7.854374 7.38311,7.854374 0,0 -6.66053,-3.340016 -8.36372,-5.302388 -1.70319,-1.96237 -3.2953,-4.998492 -3.2953,-4.998492 0,0 2.73991,7.405174 3.48043,8.330821 0.74051,0.925645 3.92474,4.55418 3.92474,4.55418 0,0 -2.55479,-2.295604 -3.92474,-3.702587 -1.36996,-1.406982 -3.48043,-4.591206 -3.48043,-4.591206 0,0 -0.12253,5.814396 1.0818,8.641969 1.20434,2.827576 1.20434,2.827576 1.20434,2.827576 0,0 -4.08427,-6.388225 -4.66026,-8.220911 -0.57599,-1.832687 -0.89016,-4.45081 -0.89016,-4.45081 0,0 -0.99489,9.320522 -3.3512,11.676832 -2.35631,2.356313 -8.32564,5.445699 -8.32564,5.445699 0,0 4.86971,-3.089386 5.60279,-4.031911 0.73307,-0.942526 1.15197,-2.827573 1.15197,-2.827573 0,0 -1.62323,2.670484 -2.9323,3.455924 -1.30906,0.785436 -6.91184,2.984661 -6.91184,2.984661 0,0 2.98466,-3.037025 3.97954,-4.817348 0.99489,-1.780326 2.72285,-6.126411 2.72285,-6.126411 0,0 -2.56576,6.911848 -2.93229,7.644921 -0.36654,0.733076 -1.08683,1.348848 -1.08683,1.348848 0,0 2.46222,-1.925343 3.64705,-3.665561 1.18483,-1.740215 3.04256,-7.134714 3.04256,-7.134714 0,0 -2.12068,6.126411 -2.38249,6.780942 -0.26181,0.654529 -1.83269,2.618124 -1.83269,2.618124 0,0 4.3199,-4.712624 4.94826,-7.226022 0.62834,-2.513399 1.09961,-8.692174 1.09961,-8.692174 0,0 -0.47127,8.823079 -0.91635,10.053598 -0.44508,1.230519 -1.3876,2.618123 -1.3876,2.618123 0,0 1.70178,-1.492329 2.06832,-2.251585 0.36653,-0.759257 1.54469,-4.660263 1.54469,-4.660263 0,0 -0.86398,4.346086 -1.20434,4.948256 -0.34035,0.602168 -0.78544,1.649418 -0.78544,1.649418 0,0 2.87741,-3.776247 3.17362,-7.812066 0.29621,-4.035819 -0.37026,-6.220344 -0.37026,-6.220344 0,0 1.01911,3.690819 0.86202,5.130787 -0.15709,1.439968 -0.15709,1.439968 -0.15709,1.439968 0,0 0.62835,-3.822461 0.20945,-6.57149 -0.4189,-2.749032 -1.04725,-7.514016 -1.04725,-7.514016 0,0 1.83269,9.608516 2.04214,10.812851 0.20945,1.204339 0.8378,4.005731 1.09961,4.764987 0.26181,0.759257 0.62835,1.597055 0.62835,1.597055 0,0 -0.44508,-4.346086 -0.75926,-6.545311 -0.31417,-2.199224 -1.23051,-6.833303 -1.23051,-6.833303 0,0 1.75414,7.828192 1.91123,8.718354 0.15708,0.890161 0.60217,2.696668 0.60217,2.696668 0,0 0.1309,-3.037025 0.0785,-3.927187 -0.0524,-0.890162 -1.02107,-5.916959 -1.02107,-5.916959 0,0 1.43997,5.995503 1.57087,6.309677 0.13091,0.314175 1.20434,1.623238 1.20434,1.623238 0,0 -1.51851,-4.974437 -1.75414,-5.916959 -0.23563,-0.942526 -1.07343,-4.189 -1.07343,-4.189 0,0 1.12579,4.843528 3.03702,7.252203 1.91123,2.408674 3.08939,3.037025 3.08939,3.037025 0,0 -2.27777,-3.455924 -2.80139,-4.843529 -0.52363,-1.387607 -1.09962,-3.874826 -1.09962,-3.874826 0,0 1.38761,4.63408 2.95848,6.571494 1.57088,1.937411 2.22541,2.408674 2.22541,2.408674 0,0 -2.61813,-3.089386 -3.16793,-5.26243 -0.54981,-2.173044 -2.50031,-9.726332 -2.50031,-9.726332 z"
         id="path59916" />
      <path
         style="fill:#190d19;fill-opacity:1;stroke:none;stroke-width:0.264583px;stroke-linecap:butt;stroke-linejoin:miter;stroke-opacity:1"
         d="m 322.77031,87.75952 c 0,0 -3.45593,4.031912 -3.40357,4.398447 0.0524,0.366538 0.31418,0.890164 -0.26181,1.309063 -0.57599,0.418899 -4.6079,3.665373 -4.71262,4.189 -0.10473,0.523623 -0.20945,0.628348 -0.20945,0.628348 0,0 -15.0804,-8.011459 -11.41502,-15.970557 3.66537,-7.959098 6.02168,-11.781557 6.02168,-11.781557 0,0 -6.96421,12.357545 -5.81223,15.237481 1.15197,2.879937 3.03702,5.340975 3.03702,5.340975 0,0 -3.19411,-4.974437 -2.30395,-7.644924 0.89016,-2.670487 6.59767,-14.766221 6.59767,-14.766221 0,0 -5.65515,13.404797 -5.65515,14.97567 0,1.570877 2.67049,6.231136 2.67049,6.231136 0,0 -2.14686,-4.764987 -1.41379,-7.173661 0.73308,-2.408674 6.38823,-15.132756 6.38823,-15.132756 0,0 -5.75987,14.923307 -5.49806,16.441819 0.26181,1.518513 2.30395,5.026798 2.30395,5.026798 0,0 -1.09962,-4.922073 -0.99489,-6.021684 0.10472,-1.099614 1.36142,-4.922075 1.36142,-4.922075 0,0 -1.2567,4.607898 -0.52362,7.1213 0.73307,2.513398 1.62324,4.24136 1.62324,4.24136 0,0 -0.92231,-7.290059 -0.55205,-9.400534 0.37026,-2.110473 3.6938,-11.073196 3.6938,-11.073196 0,0 -3.19412,9.215797 -3.08939,12.148095 0.10472,2.9323 1.04725,8.849259 1.04725,8.849259 0,0 0.23666,-9.99821 0.90312,-11.886528 0.66647,-1.88832 2.91934,-7.958852 2.91934,-7.958852 0,0 -2.40867,8.273272 -2.5134,9.320522 -0.10472,1.04725 10e-4,10.26445 10e-4,10.26445 0,0 1.15063,-9.269563 1.36008,-10.421538 0.20945,-1.151975 1.30906,-4.712623 1.30906,-4.712623 0,0 -1.46615,8.849259 -1.57087,10.263047 -0.10473,1.413785 -0.20945,3.40356 -0.20945,3.40356 0,0 2.46104,-9.006348 2.72285,-10.053595 0.26181,-1.04725 1.09961,-6.07405 1.09961,-6.07405 0,0 -1.36142,9.791784 -1.62324,10.891398 -0.26181,1.099611 -1.46615,4.66026 -1.46615,4.66026 0,0 2.87994,-3.822462 3.40356,-5.288611 0.52363,-1.466149 1.51852,-6.126411 1.51852,-6.126411 0,0 -0.99489,7.068936 -1.83269,8.43036 -0.8378,1.361424 -2.67049,4.031912 -2.67049,4.031912 0,0 1.98978,-0.890162 2.5134,-1.204339 0.52363,-0.314174 1.8698,-0.928055 1.8698,-0.928055 0,0 0.38877,0.759032 -0.1481,1.166315 -0.53688,0.407284 -0.79606,0.555387 -0.79606,0.555387 0,0 1.22185,0.129593 2.03642,0 0.81457,-0.12959 2.27419,-0.584195 2.27419,-0.584195 z"
         id="path59918" />
      <path
         style="fill:#25252d;fill-opacity:1;stroke:none;stroke-width:0.264583px;stroke-linecap:butt;stroke-linejoin:miter;stroke-opacity:1"
         d="m 316.13307,95.83617 c 0,0 -1.42655,1.660411 -1.63702,2.853103 -0.21048,1.192688 -2.50231,4.069177 -2.78295,4.817537 -0.28063,0.74835 -0.63142,2.50231 -0.63142,2.50231 l -1.44994,0.0935 c 0,0 3.15712,-6.127153 3.50791,-6.641648 0.35079,-0.514493 1.02899,-2.081361 1.02899,-2.081361 z"
         id="path59920" />
      <path
         style="fill:#190d19;fill-opacity:1;stroke:none;stroke-width:0.264583px;stroke-linecap:butt;stroke-linejoin:miter;stroke-opacity:1"
         d="m 337.00965,26.214313 c 0,0 -4.14689,8.441896 -4.73931,14.736294 -0.59241,6.294398 0.88862,13.995778 0.88862,13.995778 0,0 -0.66646,-11.440993 -0.44431,-13.107156 0.22216,-1.666164 1.74022,-5.998192 1.74022,-5.998192 0,0 -1.40698,5.887114 -1.25888,8.25677 0.1481,2.369654 0.33323,6.701682 0.33323,6.701682 0,0 0.25918,-7.775432 0.74052,-10.293191 0.48134,-2.517759 2.22155,-7.18302 2.22155,-7.18302 0,0 -1.70319,8.515951 -1.81427,9.663753 -0.11107,1.147802 0.0741,5.81306 0.0741,5.81306 0,0 0.22215,-4.665258 0.48133,-5.961163 0.25918,-1.295906 2.73992,-9.700779 2.73992,-9.700779 0,0 -1.29591,7.516252 -1.29591,8.478925 0,0.962671 -0.074,5.257673 -0.074,5.257673 0,0 0.74052,-7.627329 1.11078,-9.40457 0.37025,-1.777243 1.70319,-4.813363 1.70319,-4.813363 0,0 -1.33294,6.479527 -1.36996,7.775432 -0.037,1.295905 -0.22216,5.924137 -0.22216,5.924137 0,0 0.96268,-8.367844 1.48104,-10.071034 0.51836,-1.703191 1.66616,-4.072845 1.66616,-4.072845 0,0 -1.40698,4.887413 -1.33293,6.923837 0.074,2.036421 0.40729,4.220948 0.40729,4.220948 0,0 -0.0741,-4.887415 0.66646,-6.923836 0.74052,-2.036424 1.59211,-3.776639 1.59211,-3.776639 0,0 -1.36995,4.961467 -1.25888,5.961163 0.11108,0.999699 0.48134,2.314117 0.48134,2.314117 0,0 -0.29621,-1.888318 0.25918,-3.647048 0.55539,-1.758728 1.7217,-4.628232 1.7217,-4.628232 0,0 -0.79605,3.03612 -0.92564,3.943255 -0.12959,0.907134 0.25918,3.424893 0.25918,3.424893 0,0 -0.11108,-1.832782 0.22215,-2.962071 0.33324,-1.129289 0.72201,-2.850991 0.72201,-2.850991 0,0 -0.54135,3.619992 0.32263,3.829444 0.86398,0.209449 2.72284,0.392718 2.90611,0.23563 0.18327,-0.157088 0.26182,-3.717737 0.26182,-3.717737 0,0 -0.10473,3.534468 0.15708,3.639193 0.26182,0.104725 0.54981,0.183269 0.60217,0.02619 0.0524,-0.157089 0.34036,-3.848643 0.34036,-3.848643 0,0 -0.10473,3.848643 0.39272,3.927184 0.49744,0.07854 3.50828,0.235633 4.60789,0.471263 1.09962,0.235632 1.75415,0.575987 1.85887,0.445082 0.10473,-0.130905 0.52363,-4.974437 0.52363,-4.974437 0,0 0.18972,4.206298 0.15269,5.020869 -0.037,0.81457 -0.16662,1.610624 -0.16662,1.610624 0,0 0.75903,-3.85069 0.81457,-4.591206 0.0555,-0.740518 0.0926,-1.51806 0.0926,-1.51806 0,0 0.53687,3.73961 0.55538,4.535667 0.0185,0.796057 -0.18512,1.814267 -0.18512,1.814267 0,0 0.7263,-2.840249 0.80485,-3.363873 0.0785,-0.523626 0.10472,-1.021069 0.10472,-1.021069 0,0 0.26181,2.199224 0.26181,2.644306 0,0.44508 -0.18327,1.623235 -0.18327,1.623235 0,0 0.73308,-2.33013 0.78544,-2.722848 0.0524,-0.392719 0.13091,-1.204336 0.13091,-1.204336 0,0 0.4189,2.251586 0.36654,2.853753 -0.0524,0.602168 -0.10473,1.151975 -0.10473,1.151975 0,0 0.99489,-1.937411 1.02107,-2.539579 0.0262,-0.602168 0.0785,-1.099614 0.0785,-1.099614 0,0 0.10473,2.461038 0.0786,3.37738 -0.0262,0.916345 -0.26182,2.068319 -0.26182,2.068319 0,0 1.07343,-2.644306 1.1258,-3.14175 0.0524,-0.497443 0.0262,-3.010841 0.0262,-3.010841 0,0 0.65453,2.9323 0.60216,4.267541 -0.0524,1.335243 -0.65453,2.801395 -0.65453,2.801395 0,0 1.49233,-2.251588 1.70178,-3.194114 0.20945,-0.942522 0.31418,-2.853753 0.31418,-2.853753 0,0 0.0262,3.141747 -0.31418,4.293722 -0.34035,1.151974 -0.86398,1.85887 -0.86398,1.85887 0,0 1.36143,-1.361427 1.83269,-3.848643 0.47126,-2.487218 0.31418,-2.696667 0.31418,-2.696667 0,0 0.0524,3.42974 0.18326,4.031908 0.13091,0.602171 0.31418,1.885051 0.31418,1.885051 0,0 0.16663,-1.234721 0.57392,-1.623492 0.40728,-0.38877 1.18022,-0.680458 1.03622,-0.431736 -0.14399,0.248721 -0.64144,0.8378 -0.64144,0.8378 0,0 0.77235,-0.366538 0.95562,-0.523626 0.18327,-0.157086 1.02107,-0.90325 1.02107,-0.90325 0,0 -0.0393,0.510532 -0.23563,0.66762 -0.19636,0.157088 -0.22254,0.170177 -0.22254,0.170177 0,0 1.00797,-0.405807 1.37451,-0.837797 0.36654,-0.431991 1.80324,-0.552786 1.80324,-0.552786 0,0 0.0185,0.277693 -0.27769,0.481335 -0.29621,0.203642 -0.61093,0.25918 -0.61093,0.25918 0,0 1.07375,-0.111077 1.55509,-0.333232 0.48134,-0.222154 0.90713,-0.222154 1.20334,-0.12959 0.29621,0.09256 2.1475,1.351444 2.2956,1.147802 0.14811,-0.203642 0.56357,-1.291611 0.35412,-5.218798 -0.20945,-3.927183 -1.35382,-10.295041 -1.35382,-10.295041 0,0 0.98728,6.734393 0.88256,8.985981 -0.10473,2.251586 -0.47126,4.031911 -0.47126,4.031911 0,0 0.10472,-3.7701 -0.15709,-5.864598 -0.26182,-2.094499 -1.72796,-6.96421 -1.72796,-6.96421 0,0 1.2567,5.131524 1.20433,7.802008 -0.0524,2.670487 -0.52362,4.607899 -0.52362,4.607899 0,0 -0.47126,-3.037023 -0.78544,-5.131522 -0.31417,-2.0945 -0.47126,-5.4457 -0.47126,-5.4457 0,0 -0.20945,4.555538 -0.0524,6.074051 0.15708,1.518509 0.20945,3.717734 0.20945,3.717734 0,0 -1.07343,-3.194111 -1.17816,-5.131522 -0.10472,-1.937412 -0.39272,-7.252204 -0.39272,-7.252204 0,0 -0.23563,7.068935 -0.18327,8.953985 0.0524,1.885048 0.23563,3.482105 0.23563,3.482105 0,0 -0.9687,-4.058092 -0.94252,-6.100231 0.0262,-2.042136 0.0524,-6.100228 0.0524,-6.100228 0,0 -0.26181,5.131522 -0.47126,6.54531 -0.20945,1.413788 -1.17815,5.576604 -1.17815,5.576604 0,0 -0.7069,-3.063205 -0.52363,-5.969322 0.18327,-2.906117 -0.0785,-6.10023 -0.0785,-6.10023 0,0 -0.0524,2.356312 -0.15708,3.874825 -0.10473,1.51851 -0.34036,3.874823 -0.44508,4.607898 -0.10473,0.733073 -0.44508,3.115567 -0.44508,3.115567 0,0 0.20945,-5.576604 0.26181,-6.362041 0.0524,-0.785437 0.0262,-5.550424 0.0262,-5.550424 0,0 -0.31417,6.178772 -0.47126,7.38311 -0.15709,1.204336 -0.78544,4.293725 -0.78544,4.293725 0,0 -0.10472,-5.628968 0.0524,-8.011462 0.15709,-2.382493 0.23563,-4.948253 0.23563,-4.948253 0,0 -0.75925,8.194728 -0.94252,9.425247 -0.18327,1.230519 -0.57599,2.984661 -0.57599,2.984661 0,0 -0.36653,-5.576604 -0.31417,-7.252205 0.0524,-1.675598 0.0524,-5.052978 0.0524,-5.052978 0,0 -0.28799,5.210066 -0.52363,7.461652 -0.23563,2.251588 -0.83779,4.42463 -0.83779,4.42463 0,0 -0.0262,-5.70751 0.0262,-7.514016 0.0524,-1.806504 0.18327,-4.45081 0.18327,-4.45081 0,0 -0.57598,6.885667 -0.8378,8.561265 -0.26181,1.675601 -0.78543,2.644307 -0.78543,2.644307 0,0 -0.27074,-6.242346 -0.23372,-7.834458 0.037,-1.592112 0.33323,-4.961466 0.33323,-4.961466 0,0 -0.81456,4.66526 -0.81456,7.442199 0,2.77694 -0.59242,4.813364 -0.59242,4.813364 0,0 -0.22215,-3.332329 -0.25918,-4.924441 -0.037,-1.592112 0.29621,-5.294699 0.29621,-5.294699 0,0 -0.8516,5.146596 -0.8516,6.072241 0,0.925647 -0.48134,3.776638 -0.48134,3.776638 0,0 -0.4443,-5.146595 -0.37025,-6.812759 0.074,-1.666163 0.74052,-6.183319 0.74052,-6.183319 0,0 -1.33294,6.997889 -1.25888,8.77513 0.074,1.777241 -0.14811,3.443407 -0.14811,3.443407 0,0 -0.62944,-4.739312 -0.62944,-6.294398 0,-1.555087 0.70349,-7.331122 0.70349,-7.331122 0,0 -1.33293,7.775431 -1.25888,9.21944 0.0741,1.444008 0,3.739613 0,3.739613 0,0 -0.83022,-5.813917 -0.7255,-7.908418 0.10473,-2.094499 0.26181,-3.037023 0.26181,-3.037023 0,0 -1.09961,4.398448 -1.09961,6.021685 0,1.623237 -0.0524,4.817348 -0.0524,4.817348 0,0 -0.94253,-1.518512 -1.2567,-3.508287 -0.31417,-1.989773 -0.0524,-7.435471 -0.0524,-7.435471 0,0 -0.99489,6.545309 -0.78544,7.435471 0.20945,0.890164 0.8378,3.246474 0.8378,3.246474 0,0 -1.78033,-2.303949 -1.78033,-3.40356 0,-1.099614 0.15709,-5.079161 0.15709,-5.079161 0,0 -0.52362,4.817348 -0.8378,5.812234 -0.31417,0.994889 -0.89016,2.303949 -0.89016,2.303949 0,0 -0.52362,-3.770098 -0.36654,-4.660259 0.15709,-0.890162 0.78544,-5.812236 0.78544,-5.812236 0,0 -1.57087,6.178773 -1.57087,6.754761 0,0.575987 -0.57599,2.879936 -0.57599,2.879936 0,0 0.0524,-4.450812 0.26181,-5.340973 0.20945,-0.890163 0.94253,-4.346086 0.94253,-4.346086 0,0 -1.38761,2.33013 -1.72796,3.560648 -0.34036,1.230519 -0.49745,2.906117 -0.7069,3.639193 -0.20945,0.733073 -1.04725,2.199225 -1.04725,2.199225 0,0 -0.0524,-4.476994 0.15709,-5.733693 0.20945,-1.256699 0.54981,-3.115567 0.54981,-3.115567 0,0 -1.67561,4.948254 -1.72797,6.204953 -0.0524,1.256699 -0.52362,2.461038 -0.52362,2.461038 0,0 -0.65453,-2.461038 -0.52363,-3.927187 0.13091,-1.466149 0.34036,-2.53958 0.34036,-2.53958 0,0 -1.20434,4.84353 -1.36143,5.498061 -0.15708,0.654532 -0.47126,1.178155 -0.47126,1.178155 0,0 -0.5498,-1.911231 -0.34035,-3.482104 0.20945,-1.570875 0.75925,-3.717737 0.75925,-3.717737 0,0 -1.54469,4.764987 -1.85886,5.602785 -0.31418,0.8378 -0.7069,1.989775 -0.7069,1.989775 0,0 -0.23563,-2.565763 -0.0262,-3.874823 0.20945,-1.309063 0.81162,-3.874824 0.81162,-3.874824 0,0 -1.8065,5.288612 -1.96359,5.838416 -0.15709,0.549807 -0.65453,1.832686 -0.65453,1.832686 0,0 0.23563,-3.874822 0.49744,-5.000617 0.26181,-1.125792 0.39272,-1.780323 0.39272,-1.780323 0,0 -1.72796,4.503174 -1.88505,5.314792 -0.15709,0.811617 -0.28799,1.518512 -0.28799,1.518512 0,0 -0.96871,-1.387607 -0.60217,-2.696668 0.36654,-1.309063 0.80837,-2.611233 0.80837,-2.611233 z"
         id="path59922" />
      <path
         style="fill:#190d19;fill-opacity:1;stroke:none;stroke-width:0.264583px;stroke-linecap:butt;stroke-linejoin:miter;stroke-opacity:1"
         d="m 337.00965,26.214313 c 0,0 -2.19597,4.41774 -4.44756,5.883889 -2.25159,1.466149 -3.92719,1.780323 -3.92719,1.780323 0,0 2.46104,-0.628349 4.55554,-3.770098 2.0945,-3.14175 3.66537,-6.702398 3.66537,-6.702398 0,0 -2.40867,4.346087 -4.03191,6.12641 -1.62324,1.780326 -3.71773,2.775212 -3.71773,2.775212 0,0 3.53446,-3.586829 4.34608,-5.236247 0.81162,-1.649419 1.80651,-4.686443 1.80651,-4.686443 0,0 -2.30395,5.157703 -4.13664,6.702399 -1.83269,1.544693 -2.43486,1.963592 -2.43486,1.963592 0,0 3.08939,-4.058092 3.66538,-5.210067 0.57598,-1.151975 0.89016,-1.963593 0.89016,-1.963593 0,0 -0.9687,1.754143 -1.57087,2.382493 -0.60217,0.62835 -2.85376,3.089385 -2.85376,3.089385 0,0 0.54981,-2.173041 1.17816,-3.874823 0.62835,-1.70178 1.62323,-3.770098 1.62323,-3.770098 0,0 -3.40356,3.79628 -3.66537,9.032529 -0.26181,5.236247 2.87994,26.914316 2.87994,26.914316 0,0 -0.4189,-5.812237 -0.36654,-7.33075 0.0524,-1.51851 0.52362,-4.293722 0.52362,-4.293722 0,0 0.15709,4.084273 0.20945,5.288611 0.0524,1.204336 1.09962,5.49806 1.09962,5.49806 0,0 -0.65454,-4.529354 -0.52363,-6.990392 0.13091,-2.461035 0.49745,-4.686443 0.49745,-4.686443 l 0.29245,-4.593135 1.48103,-6.146294 1.51806,-4.332026 z"
         id="path59924" />
      <path
         style="fill:#190d19;fill-opacity:1;stroke:none;stroke-width:0.264583px;stroke-linecap:butt;stroke-linejoin:miter;stroke-opacity:1"
         d="m 328.41965,28.324788 c 0,0 0.0741,-1.814269 0.81457,-3.776639 0.74052,-1.962371 1.07375,-2.962069 1.07375,-2.962069 0,0 -3.33232,7.294095 -3.2953,9.959958 0.037,2.665862 0.22216,6.664655 0.22216,6.664655 0,0 -1.18483,-7.108965 -0.29621,-10.219139 0.88862,-3.110172 2.22155,-7.479224 2.22155,-7.479224 0,0 -3.40638,7.997587 -3.40638,9.774828 0,1.777241 -0.51836,7.997587 -0.51836,7.997587 0,0 -0.74052,-7.553277 -0.29621,-9.182415 0.44431,-1.629137 1.85129,-5.99819 1.85129,-5.99819 0,0 -3.18422,6.590605 -3.18422,7.701382 0,1.110774 -0.74052,6.88681 -0.74052,6.88681 0,0 -0.37026,-7.034916 -0.074,-8.367847 0.29621,-1.332931 1.25888,-4.072844 1.25888,-4.072844 0,0 -1.80392,3.181187 -1.93483,4.097529 -0.1309,0.916345 -1.09961,7.854374 -1.09961,7.854374 0,0 0.47966,-9.508197 1.59043,-12.618369 1.11078,-3.110173 3.25828,-7.220044 3.25828,-7.220044 0,0 -4.51716,8.441898 -4.88742,10.293191 -0.37025,1.851294 -1.96237,8.96026 -1.96237,8.96026 0,0 1.24183,-11.379866 3.28396,-15.883039 2.04214,-4.503174 3.40356,-7.17366 3.40356,-7.17366 0,0 -5.23624,10.420134 -5.8646,12.724083 -0.62834,2.303948 -2.67048,15.394568 -3.29883,19.007581 -0.62835,3.613012 -2.67049,12.357547 -2.67049,12.357547 0,0 2.14687,-7.016573 2.61813,-8.587449 0.47126,-1.570874 1.25669,-4.555535 1.25669,-4.555535 0,0 -0.15708,4.031911 -0.73307,6.911848 -0.57599,2.879936 -1.83268,8.377997 -1.83268,8.377997 0,0 2.56575,-8.482722 2.87993,-9.739421 0.31418,-1.2567 0.73307,-4.660263 0.73307,-4.660263 0,0 -0.10472,4.974437 -0.15708,6.388225 -0.0524,1.413785 -0.24803,2.474909 -0.24803,2.474909 0,0 1.11078,-5.165108 1.2774,-6.257369 0.16661,-1.092263 0.42579,-2.480733 0.42579,-2.480733 0,0 0.53688,8.756615 0.44431,9.92293 -0.0926,1.166316 -0.59241,4.40608 -0.59241,4.40608 0,0 1.11078,-4.128383 1.25888,-8.12718 0.1481,-3.998793 0.29621,-5.62793 0.29621,-5.62793 0,0 0.59241,7.4422 0.48133,9.034311 -0.11107,1.592112 -0.33323,3.887716 -0.33323,3.887716 0,0 0.96267,-5.739008 0.9997,-7.220042 0.037,-1.481037 0.25918,-4.035822 0.25918,-4.035822 0,0 0.66646,6.590604 0.55539,7.812458 -0.11108,1.221853 -0.18513,4.813363 -0.18513,4.813363 0,0 0.81457,-6.18332 0.81457,-7.516251 0,-1.332931 0.37026,-4.406077 0.37026,-4.406077 0,0 0.51836,5.850085 0.40728,7.886509 -0.11108,2.036424 -0.11108,3.517458 -0.11108,3.517458 0,0 0.44431,-6.590604 0.59242,-7.960561 0.1481,-1.369957 0.2962,-2.813968 0.2962,-2.813968 0,0 0.37026,1.962372 0.37026,2.925045 0,0.962671 -0.074,2.999095 -0.074,2.999095 0,0 0.29621,-2.480733 0.44431,-3.480432 0.1481,-0.999697 0.33323,-1.555086 0.33323,-1.555086 0,0 0,4.850389 0.33324,7.145993 0.33323,2.295602 0.59241,4.961464 0.59241,4.961464 0,0 -0.29621,-5.10957 -0.25918,-6.479526 0.037,-1.369957 0.59241,-4.517155 0.59241,-4.517155 0,0 -0.037,4.183922 0.11108,5.257673 0.1481,1.073751 0.74052,5.664957 0.74052,5.664957 0,0 -0.33323,-5.035519 -0.18513,-6.923837 0.1481,-1.888318 0.44431,-2.999094 0.44431,-2.999094 0,0 0.44431,3.369352 0.51836,4.109871 0.074,0.740516 0.074,1.962369 0.074,1.962369 0,0 0.0741,-3.480429 0.0741,-4.183922 0,-0.70349 0.25918,-4.146897 0.25918,-4.146897 l -0.92565,-13.403362 -0.88862,-2.369656 0.0447,-3.745921 z"
         id="path59926" />
      <path
         style="fill:#190d19;fill-opacity:1;stroke:none;stroke-width:0.264583px;stroke-linecap:butt;stroke-linejoin:miter;stroke-opacity:1"
         d="m 326.56836,12.588794 c 0,0 9.99698,-11.4039663 22.88199,-9.7748283 12.885,1.6291382 17.77241,4.5171558 20.73448,7.2570703 2.96207,2.739914 4.1469,4.072845 4.1469,4.072845 0,0 -2.48074,-2.406681 -4.44311,-3.665561 -1.96237,-1.2588795 -4.40608,-2.0364227 -4.40608,-2.0364227 0,0 3.9988,2.1104747 5.70199,4.8503887 1.70319,2.739914 3.11017,7.183018 3.11017,7.183018 0,0 -2.03642,-4.961466 -4.55418,-7.516251 -2.51776,-2.554785 -4.48013,-3.4434053 -4.48013,-3.4434053 0,0 3.66556,4.0728453 4.48013,6.9978883 0.81457,2.925044 1.25888,5.405777 1.25888,5.405777 0,0 -1.48104,-6.516553 -3.59151,-8.812156 -2.11047,-2.295604 -2.92504,-3.036121 -2.92504,-3.036121 0,0 3.51745,5.072543 3.88771,6.701681 0.37026,1.629138 0.48134,5.405777 0.48134,5.405777 0,0 -0.48134,-5.368751 -2.07345,-7.368148 -1.59211,-1.999396 -2.07345,-2.406681 -2.07345,-2.406681 0,0 1.74022,3.480431 1.88832,5.887113 0.1481,2.406681 -0.18513,4.961466 -0.18513,4.961466 0,0 -0.11107,-5.627932 -1.33293,-8.182717 -1.22185,-2.554784 -1.9994,-3.406379 -1.9994,-3.406379 0,0 1.88832,6.035216 1.74022,7.923535 -0.14811,1.888319 -0.51836,4.295 -0.51836,4.295 0,0 0.33323,-5.887112 -1.03673,-8.552974 -1.36995,-2.665863 -1.81426,-3.776639 -1.81426,-3.776639 0,0 1.11077,5.035518 1.18482,6.405475 0.0741,1.369957 -0.2962,4.591207 -0.2962,4.591207 0,0 0,-6.294397 -0.8516,-7.960561 -0.85159,-1.666164 -1.36996,-3.147199 -1.36996,-3.147199 0,0 0.44431,4.591208 0.44431,5.850087 0,1.25888 -0.48133,4.220949 -0.48133,4.220949 0,0 -0.037,-5.36875 -0.40728,-7.627328 -0.37027,-2.258578 -0.62945,-3.369354 -0.62945,-3.369354 0,0 0.0741,4.628233 -0.1481,6.516552 -0.22215,1.888319 -0.33323,3.221251 -0.33323,3.221251 0,0 0.11108,-4.554182 0.037,-6.035216 -0.074,-1.481035 -0.59241,-3.332328 -0.59241,-3.332328 0,0 -0.33342,4.61369 -0.49051,6.184564 -0.15709,1.570875 -0.26181,2.591943 -0.26181,2.591943 0,0 -0.0262,-4.974436 -0.0262,-5.943142 0,-0.968706 0,-2.775211 0,-2.775211 0,0 -1.09961,4.791167 -1.2567,5.943141 -0.15709,1.151975 -0.34035,3.953368 -0.34035,3.953368 0,0 0.0524,-5.47188 0.26181,-6.885667 0.20945,-1.413787 0.36653,-3.298836 0.36653,-3.298836 0,0 -1.57087,4.42463 -1.85886,5.916961 -0.288,1.49233 -0.7069,4.188998 -0.7069,4.188998 0,0 0.78544,-6.54531 0.96871,-7.671104 0.18327,-1.125793 0.60217,-3.063205 0.60217,-3.063205 0,0 -1.83269,3.482105 -2.22541,4.764986 -0.39272,1.282881 -1.3876,6.309679 -1.3876,6.309679 0,0 0.62835,-5.733692 1.07343,-7.17366 0.44508,-1.439968 1.23052,-4.1104547 1.23052,-4.1104547 0,0 -2.25159,3.9010047 -2.9323,5.7860547 -0.68071,1.885049 -1.78033,4.922073 -1.78033,4.922073 0,0 1.6756,-7.121298 2.43486,-8.927803 0.75925,-1.806506 0.86398,-2.251587 0.86398,-2.251587 0,0 -2.72285,4.450811 -3.06321,5.812235 -0.34035,1.361425 -1.33524,4.84353 -1.33524,4.84353 0,0 1.09961,-6.859485 1.64942,-7.932916 0.54981,-1.073431 1.59705,-3.1941113 1.59705,-3.1941113 0,0 -3.61301,4.2937233 -3.901,6.1525913 -0.28799,1.858868 -0.68071,4.922074 -0.75926,5.05298 -0.0785,0.130906 -0.0785,-5.916961 1.23052,-8.351816 1.30906,-2.4348554 1.6756,-3.2988364 1.6756,-3.2988364 0,0 -2.40867,1.7017804 -2.9323,3.1155674 -0.52362,1.413787 -1.70178,8.01146 -1.70178,8.01146 0,0 0.60217,-7.147479 1.1258,-8.456541 0.52362,-1.309062 1.57087,-2.9322987 1.57087,-2.9322987 0,0 -2.27777,2.1992237 -2.85376,3.4821047 -0.57598,1.282881 -1.70178,7.121298 -1.70178,7.121298 0,0 0.62835,-6.178773 0.96871,-7.17366 0.34035,-0.994887 1.30906,-2.8537556 1.30906,-2.8537556 0,0 -3.29884,4.3460856 -3.84864,7.0689356 -0.54981,2.722849 -0.75926,3.665373 -0.75926,3.665373 0,0 0.34036,-4.634079 1.62324,-7.016572 1.28288,-2.382493 1.75414,-3.8224614 1.75414,-3.8224614 0,0 -2.90612,3.7177364 -3.58683,5.4980604 -0.68071,1.780324 -2.0945,4.791167 -2.0945,4.791167 0,0 2.06832,-5.70751 2.61813,-6.885666 0.5498,-1.178156 1.6756,-3.5868303 1.6756,-3.5868303 0,0 -3.32502,4.0842733 -4.39845,6.4144043 -1.07343,2.33013 -1.98977,4.110455 -1.98977,4.110455 0,0 2.35631,-5.89078 3.22029,-7.199842 0.86398,-1.309062 1.83268,-3.508286 1.83268,-3.508286 0,0 -3.19411,4.110455 -4.03191,5.576604 -0.8378,1.46615 -2.06831,4.922074 -2.06831,4.922074 0,0 1.78032,-5.628967 2.38249,-6.780942 0.60217,-1.151974 1.09961,-2.1468614 1.09961,-2.1468614 0,0 -2.80139,2.0683184 -3.7701,3.5082864 -0.9687,1.439968 -2.72285,5.471879 -2.72285,5.471879 0,0 1.12579,-3.665374 1.64942,-4.817348 0.52362,-1.151975 2.35631,-3.691555 2.35631,-3.691555 0,0 -3.45592,3.16793 -4.03191,4.398448 -0.57599,1.230519 -1.96359,4.738805 -1.96359,4.738805 0,0 1.46615,-5.000617 2.19922,-6.100229 0.73308,-1.099612 1.78033,-2.670487 1.78033,-2.670487 0,0 -3.01085,3.194112 -3.48211,4.110455 -0.47126,0.916344 -1.6756,3.874824 -1.6756,3.874824 0,0 1.62324,-4.738805 2.12068,-5.393336 0.49745,-0.654531 1.15198,-1.701781 1.15198,-1.701781 0,0 -2.82758,2.225406 -3.2203,2.984662 -0.39271,0.759256 -1.91123,3.429743 -1.91123,3.429743 0,0 1.23052,-3.665374 2.17305,-4.660261 0.94252,-0.994888 3.3512,-3.665374 3.3512,-3.665374 0,0 -3.3512,2.12068 -4.0581,2.879936 -0.70689,0.759256 -2.56576,3.508287 -2.56576,3.508287 0,0 2.17304,-3.848643 3.40356,-4.948255 1.23052,-1.099612 4.05809,-3.3511987 4.05809,-3.3511987 0,0 -3.901,2.3039497 -5.05297,3.2464737 -1.15198,0.942525 -2.06655,1.592673 -2.06655,1.592673 z"
         id="path59928" />
      <path
         style="fill:#190d19;fill-opacity:1;stroke:none;stroke-width:0.264583px;stroke-linecap:butt;stroke-linejoin:miter;stroke-opacity:1"
         d="m 374.39971,68.385401 c 0,0 -2.82757,12.776446 -1.83268,15.918195 0.99488,3.141748 7.12129,14.34732 8.69217,15.551656 1.57087,1.204338 4.50317,2.356308 4.50317,2.356308 0,0 -3.82246,-1.72796 -5.91696,-5.759869 -2.0945,-4.031911 -2.30395,-4.660259 -2.30395,-4.660259 0,0 3.14175,6.074047 5.0268,7.540196 1.88505,1.466152 3.50828,2.775212 4.189,2.984662 0.68071,0.20945 4.79116,0.91634 4.79116,0.91634 0,0 -4.52935,-1.78032 -5.91695,-3.03702 -1.38761,-1.2567 -2.33014,-2.27777 -2.33014,-2.27777 0,0 3.71774,3.08939 6.17878,3.7701 2.46103,0.68071 3.32501,1.02107 3.32501,1.02107 0,0 -7.77583,-4.346088 -8.48272,-5.786056 -0.70689,-1.439968 -0.78543,-1.623237 -0.78543,-1.623237 0,0 1.02106,1.466148 2.01595,1.806506 0.99489,0.340355 1.51851,0.471262 1.51851,0.471262 0,0 -3.96457,-2.754243 -4.81617,-5.086871 -0.85159,-2.33263 -0.77754,-1.88832 -0.77754,-1.88832 0,0 1.07375,1.999398 1.77724,2.295604 0.70349,0.296206 1.62914,0.70349 1.62914,0.70349 0,0 -1.44401,-1.1478 -1.8513,-1.703189 -0.40728,-0.555387 -0.55538,-0.814567 -0.55538,-0.814567 0,0 2.66586,2.665862 3.55448,3.03612 0.88862,0.370258 2.66586,0.814567 2.66586,0.814567 0,0 -1.96237,-1.77724 -2.51776,-2.480731 -0.55538,-0.703492 -0.96267,-1.110776 -0.96267,-1.110776 0,0 4.4431,4.072845 6.55358,4.813361 2.11048,0.740518 5.22065,1.036725 5.22065,1.036725 0,0 -4.55418,-1.888318 -6.25738,-3.184224 -1.70318,-1.295905 -3.48042,-3.110174 -3.48042,-3.110174 0,0 2.07344,1.369957 3.22124,1.962372 1.14781,0.592413 2.81397,1.036725 2.81397,1.036725 0,0 -2.70289,-1.25888 -3.70259,-2.184527 -0.99969,-0.925647 -1.44401,-1.51806 -1.44401,-1.51806 0,0 3.22126,2.184527 4.10987,2.517759 0.88863,0.333232 3.77664,0.962671 3.77664,0.962671 0,0 -9.84761,-4.083233 -12.83227,-10.000195 -2.98466,-5.916959 -3.50829,-7.59256 -3.50829,-7.59256 0,0 1.57088,5.183886 1.98978,6.021687 0.4189,0.8378 1.09961,2.199224 1.09961,2.199224 0,0 -2.56576,-3.141749 -3.56065,-5.340974 -0.99489,-2.199225 -1.98977,-6.283497 -1.98977,-6.283497 0,0 1.20433,6.388222 1.72796,7.644921 0.52362,1.2567 1.62323,3.874826 1.62323,3.874826 0,0 -3.19411,-4.503174 -3.61301,-6.335861 -0.4189,-1.832687 -0.62835,-5.550424 -0.62835,-5.550424 0,0 -0.20945,4.503174 0.78544,6.964209 0.99489,2.461038 1.36142,4.346088 1.36142,4.346088 0,0 -2.61812,-3.665373 -2.98466,-5.498062 -0.36653,-1.832687 0,-6.021684 0,-6.021684 0,0 -0.99488,6.021684 -0.31417,8.116183 0.68071,2.0945 0.78544,2.565763 0.78544,2.565763 0,0 -1.89804,-3.179472 -1.63886,-5.623179 0.25918,-2.443708 0.33323,-3.110172 0.33323,-3.110172 0,0 -0.96267,2.999095 -0.96267,3.961768 0,0.96267 0.2962,3.998793 0.2962,3.998793 0,0 -0.99969,-3.443406 -0.55538,-6.405475 0.44431,-2.962071 0.9566,-7.221418 0.9566,-7.221418 z"
         id="path59930" />
      <path
         style="fill:#190d19;fill-opacity:1;stroke:none;stroke-width:0.264583px;stroke-linecap:butt;stroke-linejoin:miter;stroke-opacity:1"
         d="m 383.10686,75.569793 c 0,0 -1.36996,-3.184226 -1.36996,-4.369054 0,-1.184828 0.074,-2.443707 0.074,-2.443707 0,0 4.47504,5.283517 6.15064,6.226042 1.6756,0.942526 12.51464,5.70751 12.51464,5.70751 0,0 -14.92331,-6.597671 -17.07017,-14.97567 -2.14686,-8.377997 -1.98978,-9.89651 -1.98978,-9.89651 0,0 0.31418,6.126411 0.68072,7.697288 0.36653,1.570873 1.15197,3.927184 1.15197,3.927184 0,0 -2.25159,-4.450811 -2.40867,-6.54531 -0.15709,-2.094498 -0.20945,-6.807121 -0.20945,-6.807121 0,0 -0.47126,7.959095 0.4189,10.420133 0.89016,2.461035 0.89016,2.513399 0.89016,2.513399 0,0 -2.5134,-4.031912 -2.5134,-6.178773 0,-2.146863 0.0524,-5.812236 0.0524,-5.812236 0,0 -0.89016,6.492949 -0.52362,7.487835 0.36654,0.994889 0.94252,4.24136 0.94252,4.24136 0,0 -1.6756,-3.874822 -1.83268,-4.869709 -0.15709,-0.994888 -0.26182,-3.927186 -0.26182,-3.927186 0,0 -0.47126,4.293722 -0.26181,5.445696 0.20945,1.151975 0.26181,2.618126 0.26181,2.618126 0,0 -1.47215,-1.863264 -1.37958,-2.955528 0.0926,-1.092263 0.35175,-2.684375 0.35175,-2.684375 0,0 -1.07376,3.998794 -1.01822,5.68347 0.0555,1.684678 0.31472,5.868601 0.31472,5.868601 0,0 0.074,-2.999095 0.25918,-4.109871 0.18513,-1.110776 0.37026,-1.369957 0.37026,-1.369957 0,0 0.11108,2.702888 0.25918,3.517456 0.14811,0.81457 0.70349,2.665862 0.70349,2.665862 0,0 -0.51836,-3.295301 -0.37025,-4.035819 0.1481,-0.740516 0.25918,-1.444009 0.25918,-1.444009 0,0 0.55539,4.109871 0.85159,5.035518 0.29621,0.925648 0.92565,3.110172 0.92565,3.110172 0,0 -0.88862,-3.813662 -0.88862,-5.072541 0,-1.25888 0.074,-2.406682 0.074,-2.406682 0,0 0.66646,2.591811 1.25888,4.813361 0.59241,2.221553 1.22185,4.109873 1.22185,4.109873 0,0 -1.1478,-4.813363 -1.1478,-5.664959 0,-0.851593 0.037,-2.295602 0.037,-2.295602 0,0 0.59241,3.258275 0.74052,3.813662 0.1481,0.55539 0.81456,2.443708 0.81456,2.443708 0,0 -0.55538,-2.813966 -0.62944,-3.850691 -0.074,-1.036722 0.0741,-1.592111 0.0741,-1.592111 0,0 0.48133,2.925042 0.70349,3.369355 0.22215,0.444309 1.51806,2.59181 1.51806,2.59181 z"
         id="path59932" />
      <ellipse
         style="font-variation-settings:normal;opacity:1;fill:#ffffff;fill-opacity:1;fill-rule:evenodd;stroke-width:1.465;stroke-linecap:butt;stroke-linejoin:bevel;stroke-miterlimit:4;stroke-dasharray:none;stroke-dashoffset:0;stroke-opacity:0.768627;paint-order:stroke fill markers;stop-color:#000000;stop-opacity:1"
         id="ellipse59934"
         cx="348.43744"
         cy="-87.2939"
         rx="1.2628485"
         ry="0.90036422"
         transform="rotate(29.581322)" />
      <path
         style="fill:#ffffff;fill-opacity:1;stroke:none;stroke-width:0.264583px;stroke-linecap:butt;stroke-linejoin:miter;stroke-opacity:1"
         d="m 371.8855,98.899746 c 0,0 1.30961,0.748355 0.28063,0.701582 -1.02899,-0.04677 -5.2151,-0.07016 -6.50133,0.491112 -1.28624,0.56126 -4.5369,3.13373 -4.5369,3.13373 0,0 2.59585,-3.741772 5.42557,-4.092564 2.82971,-0.35079 5.33203,-0.23386 5.33203,-0.23386 z"
         id="path59936" />
      <path
         style="fill:#ffffff;fill-opacity:1;stroke:none;stroke-width:0.264583px;stroke-linecap:butt;stroke-linejoin:miter;stroke-opacity:1"
         d="m 344.34137,97.069009 c 0,0 0.42995,2.943491 1.02526,3.075781 0.59531,0.13229 6.97839,1.2237 8.49974,1.91823 1.52136,0.69453 7.90443,3.77031 7.90443,3.77031 l -1.48828,0.0661 c 0,0 -6.8461,-3.77031 -10.12032,-4.06797 -3.27421,-0.29766 -4.72942,-0.0661 -4.96093,-0.42995 -0.23151,-0.3638 -0.8599,-4.332551 -0.8599,-4.332551 z"
         id="path59938" />
      <ellipse
         style="font-variation-settings:normal;opacity:1;fill:#ffffff;fill-opacity:1;fill-rule:evenodd;stroke-width:1.465;stroke-linecap:butt;stroke-linejoin:bevel;stroke-miterlimit:4;stroke-dasharray:none;stroke-dashoffset:0;stroke-opacity:0.768627;paint-order:stroke fill markers;stop-color:#000000;stop-opacity:1"
         id="ellipse59940"
         cx="326.23587"
         cy="87.592575"
         rx="1.9410449"
         ry="1.2043834" />
      <path
         style="fill:#25252d;fill-opacity:1;stroke:none;stroke-width:0.264583px;stroke-linecap:butt;stroke-linejoin:miter;stroke-opacity:1"
         d="m 373.19749,106.03177 c 0,0 0.0496,-2.11667 0.19844,-2.87734 0.14883,-0.76068 0.46302,-2.10013 0.46302,-2.10013 0,0 -0.28112,2.64583 -0.23151,3.15846 0.0496,0.51263 0.28112,1.85208 0.28112,1.85208 z"
         id="path59942" />
      <path
         style="fill:#25252d;fill-opacity:1;stroke:none;stroke-width:0.264583px;stroke-linecap:butt;stroke-linejoin:miter;stroke-opacity:1"
         d="m 375.51259,101.15351 c 0,0 1.02527,2.41433 1.05834,2.77813 0.0331,0.3638 0.49609,0.89297 0.61185,1.07487 0.11575,0.1819 0.39687,0.84336 0.39687,0.84336 l -2.38125,0.11575 c 0,0 0.99219,-0.7276 1.00873,-1.19062 0.0165,-0.46302 0.21497,-0.34727 0,-1.20716 -0.21498,-0.8599 -0.69454,-2.41433 -0.69454,-2.41433 z"
         id="path59944" />
      <path
         style="fill:#25252d;fill-opacity:1;stroke:none;stroke-width:0.264583px;stroke-linecap:butt;stroke-linejoin:miter;stroke-opacity:1"
         d="m 345.3189,98.128007 c 0.28064,0.02339 5.26187,0.865282 6.54811,1.239461 1.28623,0.374177 2.50231,0.888672 2.50231,0.888672 0,0 -0.6782,-1.262851 -1.23946,-1.73057 -0.56127,-0.467723 -0.91206,-0.701583 -0.91206,-0.701583 0,0 2.15152,0.958829 2.50231,1.707184 0.35079,0.748349 0.63142,1.613639 0.63142,1.613639 0,0 -3.78854,-1.520095 -5.14493,-1.847501 -1.3564,-0.327404 -4.8877,-1.169302 -4.8877,-1.169302 z"
         id="path59946" />
      <path
         style="fill:#ffffff;fill-opacity:1;stroke:none;stroke-width:0.219856px;stroke-linecap:butt;stroke-linejoin:miter;stroke-opacity:1"
         d="m 352.86797,-39.154881 c 0,0 6.1515,-1.956749 6.78729,0.625213 0.63578,2.581962 -0.18754,7.190016 0.0192,8.036501 0.20678,0.846488 0.63445,0.493407 0.11475,1.346306 -0.51972,0.852898 -0.16024,0.542005 -0.34432,1.541644 -0.18407,0.999637 -0.62206,1.835518 -0.60603,3.14092 0.0161,1.305405 -0.63085,0.6407 -0.40884,1.756101 0.22199,1.115402 0.62623,1.241216 0.27175,1.77362 -0.35449,0.532401 -1.10552,0.433177 -0.90187,1.184131 0.20362,0.75095 0.88423,0.768465 0.65762,1.534977 -0.22673,0.766497 -0.55509,1.157542 -0.39595,1.685403 0.15925,0.527872 0.57648,0.582996 0.45168,1.724985 -0.1248,1.141986 -0.27867,1.049251 -0.28634,1.555072 -0.008,0.505818 0.15155,1.033689 0.10481,1.751562 -0.0465,0.71789 0.0161,1.305409 -0.036,1.5881493 -0.0521,0.2827409 -0.73078,2.111794 -0.67854,2.4083145 0.0523,0.2965251 0.0921,0.4284906 0.10447,0.5930438 0.0125,0.1645608 -0.0403,0.369031 -0.0403,0.369031 l 0.62321,3.5454171 -0.96163,1.9726891 3.64068,-6.0545729 0.79583,-2.3523536 5.50022,-6.2362243 6.11791,-6.308211 3.91186,-2.862229 3.59676,-2.135888 10.5311,-5.784562 3.63732,-1.184748 3.39644,-0.166705 0.79706,0.313471 c 0,0 1.33527,0.132509 1.19734,1.291839 -0.13791,1.159331 -0.30914,2.00707 -0.38374,2.33 -0.0744,0.322945 0.0734,0.585683 0.0343,0.798107 -0.0391,0.212421 -0.26405,0.2851 -0.36771,0.437797 -0.10369,0.152694 -0.0809,0.603688 -0.0993,0.70365 -0.0185,0.09997 -2.08868,4.467298 -3.28033,4.671884 -1.19164,0.204585 -1.24907,0.05219 -1.3153,0.876091 -0.0662,0.823904 0.15426,1.251262 -0.32812,1.549553 -0.48233,0.298299 -0.61402,0.317103 -0.6347,0.893608 -0.0206,0.576507 -2.53071,4.227141 -3.58415,4.377581 -1.05346,0.150437 -1.10553,0.433176 -1.41559,1.188663 -0.31009,0.755485 -0.7143,0.629673 -1.15223,1.151053 -0.43793,0.52138 -0.29705,0.684802 -0.69593,0.994125 -0.39887,0.309325 -0.87354,0.101803 -1.18897,0.422152 -0.31542,0.320352 -1.0948,1.30345 -1.39721,1.553115 -0.30242,0.249665 0.10413,-0.565479 -0.73269,0.265223 -0.83679,0.8307041 -1.27471,1.3520842 -1.60315,1.7431184 -0.32846,0.3910341 -0.53208,-0.3599152 -1.20199,0.4928377 -0.66989,0.8527555 -1.35818,1.3410581 -1.80911,1.9331246 -0.45093,0.5920655 -1.28007,0.9169485 -1.53808,1.3896915 -0.258,0.4727469 -7.77238,5.8082722 -8.54111,6.3722798 -0.76872,0.5640091 -1.17798,0.817125 -1.49685,1.2357766 -0.31886,0.4186538 -1.39561,0.6859782 -1.39561,0.6859782 0,0 -1.58874,0.7500558 -1.65601,0.8691638 -0.0673,0.1191115 -0.25673,0.081276 -0.26593,0.1312576 -0.009,0.049986 -0.17818,0.4756372 -0.17818,0.4756372 0,0 -0.13924,0.7684552 -0.31548,0.7994736 -0.17665,0.030966 -3.88747,-0.2420914 -3.88747,-0.2420914 l -3.5529,0.1460317 -6.17449,1.5011824 -5.15854,2.2508514 -4.3686,4.8480519 -4.30297,6.152159 -1.17427,1.618767 -0.66604,-1.373179 0.55322,-4.977142 0.69497,-1.917407 0.92184,-2.104654 c 0,0 1.23249,-2.7012454 2.89257,-3.8386652 1.66005,-1.1374155 1.45732,-0.8570135 1.67845,-1.2373788 0.22116,-0.3803644 0.26637,-0.2975963 0.55572,-0.7201477 0.28936,-0.4225505 0.25715,-0.2476142 0.26907,-0.4764302 0.0118,-0.2288233 0.0956,-1.0113233 0.0956,-1.0113233 l -0.81634,-1.3110056 -2.80486,-8.4083837 -0.42554,-5.8123995 2.21222,-10.283926 6.2571,-9.361694 1.64685,-5.004601 1.6174,-1.992137 c 0,0 1.63569,-0.933319 1.68068,-0.945477 0.045,-0.01216 1.20199,-0.492837 1.20199,-0.492837 z"
         id="path59948" />
      <path
         style="fill:#ff9bfe;fill-opacity:1;stroke:none;stroke-width:0.219856px;stroke-linecap:butt;stroke-linejoin:miter;stroke-opacity:1"
         d="m 394.25996,-24.119723 c 0,0 -0.96735,1.365543 -0.99825,1.533421 -0.031,0.167876 0.0218,0.926041 -0.0139,1.120425 -0.0357,0.194385 -0.40261,0.851866 -0.40261,0.851866 l -0.77796,1.381514 -0.72531,0.863536 -2.70847,2.363779 c 0,0 -8.08195,6.8806886 -8.37781,7.1743858 -0.29585,0.293698 -3.40934,3.005416 -3.97438,3.3659445 -0.56504,0.3605294 -1.77808,1.1218256 -1.77808,1.1218256 l -0.93655,0.4906375 -3.16723,1.9366518 -2.74577,1.36015987 -1.71206,0.6517119 -1.49644,0.11906113 -1.112,-0.51799101 0.46194,-0.82592669 1.33042,-1.480483 1.17041,-1.365866 0.54993,-1.013415 0.78923,-0.7464846 1.62409,-1.4768041 1.10382,-0.6605288 1.23808,-1.7179477 2.49149,-1.7955392 2.50135,-2.587802 2.7957,-1.806544 1.82124,-0.207358 0.77698,-0.690913 3.38444,-3.034305 1.19871,-0.929584 0.83789,-0.529272 2.33705,-1.777543 2.7178,-2.150091 1.33224,-0.910056 0.78158,-0.240663 0.33416,0.216112 0.0676,0.271394 -0.2509,0.840234 z"
         id="path59950" />
      <path
         style="fill:#ff9bfe;fill-opacity:1;stroke:none;stroke-width:0.219856px;stroke-linecap:butt;stroke-linejoin:miter;stroke-opacity:1"
         d="m 348.66373,1.8938923 -1.59376,0.9413879 c 0,0 -3.04505,-2.50142473 -3.15683,-3.207364 -0.11178,-0.7059407 -0.16154,-3.5539967 -0.16154,-3.5539967 l -0.24397,-4.5893014 0.54897,-3.9097281 0.94136,-4.183712 0.43596,-1.212805 c 0,0 2.25671,-6.214948 2.73428,-7.183622 0.47755,-0.968674 2.28341,-2.884124 2.28341,-2.884124 l 1.47884,-1.579018 1.30762,0.94073 0.69914,0.962734 0.009,1.101898 0.16347,0.917559 -0.3435,1.208966 -1.1064,5.843975 0.23517,3.154141 0.495,5.6125416 0.57453,2.6824764 -0.11375,3.1707807 -1.01421,4.9354004 -2.84316,0.2296878 z"
         id="path59952" />
      <path
         style="fill:#d35ed2;fill-opacity:1;stroke:none;stroke-width:0.219856px;stroke-linecap:butt;stroke-linejoin:miter;stroke-opacity:1"
         d="m 353.31369,0.76751414 c 0,0 1.5895,-5.67775194 0.78998,-9.21364124 -0.79951,-3.5358889 -1.25362,-10.9171809 -0.59043,-12.8774749 0.66319,-1.960296 1.16346,-5.990031 1.03246,-6.263329 -0.13101,-0.273297 1.33067,-1.974502 1.33067,-1.974502 0,0 -1.14282,1.282553 -1.46005,1.035849 -0.31723,-0.246704 -1.39613,-0.952424 -1.32249,-1.35228 0.0737,-0.399854 0.66696,-1.652608 0.66696,-1.652608 0,0 -2.56224,2.426163 -3.60545,3.824271 -1.0432,1.398109 1.0562,-1.140404 1.82329,-1.039057 0.76709,0.10135 1.62889,2.314323 1.133,2.709588 -0.49587,0.395265 -1.41945,1.143609 -1.41945,1.143609 0,0 1.97272,-0.865721 1.79406,-0.223753 -0.17877,0.641955 -0.8489,3.625289 -1.413,4.062741 -0.56408,0.437451 -2.42583,2.34179 -2.42583,2.34179 0,0 1.46546,-1.39352 2.19575,-1.092243 0.73027,0.301275 0.56675,2.173993 0.11144,2.677017 -0.45528,0.503025 -1.39453,1.172499 -1.39453,1.172499 0,0 1.53204,-0.770348 1.46761,-0.420475 -0.0644,0.349873 -1.77216,2.402555 -1.77216,2.402555 0,0 1.85174,-1.521679 1.99843,-1.169511 0.1467,0.352169 0.2821,2.623852 0.36707,3.322924 0.085,0.69907 0.71922,2.592984 0.10785,3.127658 -0.61133,0.5346711 -1.51089,0.7778446 -1.51089,0.7778446 0,0 2.22021,-0.6841311 2.19684,-0.3251943 -0.0232,0.3589463 0.34639,2.7609423 0.004,4.851665 -0.34219,2.0907291 -0.76794,4.17041881 -0.76794,4.17041881 0,0 -2.12908,0.18933652 -2.71056,0.32972769 -0.58146,0.1403912 -3.148,1.9154106 -3.148,1.9154106 0,0 2.5303,-1.4320241 3.30933,-1.559492 0.779,-0.1274686 3.70715,0.054606 3.68957,-0.178107 -0.0175,-0.2327142 -0.47774,-0.52390026 -0.47774,-0.52390026 z"
         id="path59954" />
      <path
         style="fill:#d35ed2;fill-opacity:1;stroke:none;stroke-width:0.219856px;stroke-linecap:butt;stroke-linejoin:miter;stroke-opacity:1"
         d="m 347.06342,-22.255019 c 0,0 -2.28,5.41874 -2.5587,6.467989 -0.27868,1.049251 -1.40876,6.2578952 -1.1814,7.808433 0.22734,1.5505369 0.49751,6.5821569 0.49751,6.5821569 0,0 -0.0129,-7.8214153 0.0652,-8.2455251 0.078,-0.4241108 3.73308,-3.5614528 3.73308,-3.5614528 0,0 -3.98651,3.194667 -3.23697,0.273022 0.74955,-2.921645 2.40231,-3.855236 2.40231,-3.855236 0,0 -1.70612,0.784769 -1.4144,-0.335165 0.29171,-1.119937 0.70859,-2.223335 1.00755,-3.03459 0.29899,-0.811254 0.68582,-2.099632 0.68582,-2.099632 z"
         id="path59956" />
      <path
         style="fill:#d35ed2;fill-opacity:1;stroke:none;stroke-width:0.219856px;stroke-linecap:butt;stroke-linejoin:miter;stroke-opacity:1"
         d="m 393.71514,-23.33345 c 0,0 2.06422,-3.003941 0.54679,-2.641246 -1.51742,0.362698 -2.38361,1.784194 -2.9385,2.171662 -0.55488,0.38747 -1.8915,1.081243 -2.4702,1.926344 -0.57872,0.845102 0.0205,0.87308 -1.1558,1.024848 -1.17637,0.151768 -1.2592,0.601604 -1.57807,1.020256 -0.31886,0.418653 -0.87753,0.498436 -0.87753,0.498436 0,0 -3.6299,3.959608 -4.65732,3.968677 -1.02741,0.009 -0.87888,-0.33333 -2.44835,0.762596 -1.56947,1.095927 -2.28377,1.725601 -2.50273,1.986291 -0.21896,0.26069 -0.17991,0.04863 -1.24869,1.210714 -1.06879,1.162078 -1.19128,1.363108 -2.03343,1.7586785 -0.84215,0.3955663 -1.15223,1.1510516 -1.79609,1.8624373 -0.64387,0.7113838 -0.44328,0.086245 -1.67895,1.2262722 -1.23567,1.1400296 -2.10385,1.6769688 -2.221,2.3131339 -0.11714,0.6361657 -3.05782,3.1438349 -2.99504,3.73136589 0.0627,0.58753034 6.03362,-1.66460159 5.17845,-1.19834839 -0.85517,0.4662525 -3.56688,1.26646002 -3.28515,1.59329915 0.28174,0.32684209 6.35669,-2.49077415 6.32645,-3.25501865 -0.0302,-0.7642413 -0.13274,-3.456765 -0.13274,-3.456765 0,0 0.48457,2.7067946 0.6059,2.9762419 0.12133,0.2694472 2.66999,-0.8057185 2.66999,-0.8057185 0,0 -5.37331,3.4171505 -5.98732,3.73425443 -0.61401,0.31710391 -3.22658,1.27521828 -3.66336,1.3261179 -0.43678,0.0508999 -2.77716,-0.004899 -2.11645,-1.03987303 0.66072,-1.0349805 3.1489,-3.6386345 3.20748,-3.9567167 0.0586,-0.3180836 1.98368,-2.4168912 2.41128,-2.6500181 0.42758,-0.2331269 0.88653,-0.1724889 1.27355,-0.8816066 0.38702,-0.7091167 1.0217,-1.6027265 1.54576,-1.8955132 0.52404,-0.292788 2.19738,-1.338498 2.40933,-1.668881 0.21194,-0.330384 3.07737,-3.254068 3.65716,-3.61265 0.57978,-0.358579 1.57995,-0.866414 2.33134,-0.843935 0.75139,0.02248 1.3404,-0.386086 1.55423,-0.562624 0.21383,-0.176541 3.68476,-3.762598 3.9798,-3.723617 0.29503,0.03898 0.44986,-0.145355 0.66181,-0.475738 0.21194,-0.330384 1.28409,-0.572716 1.45923,-0.70317 0.17512,-0.130456 2.41582,-1.95913 2.71816,-2.123976 0.30234,-0.164846 1.7494,-1.4584 2.04985,-1.777089 0.30045,-0.31869 2.358,-1.070804 2.4886,-0.631167 0.13059,0.439635 -0.21313,1.238987 -0.33511,1.491661 -0.1221,0.252656 -0.95334,1.320383 -0.95334,1.320383 z"
         id="path59958" />
      <path
         style="fill:#d35ed2;fill-opacity:1;stroke:none;stroke-width:0.219856px;stroke-linecap:butt;stroke-linejoin:miter;stroke-opacity:1"
         d="m 393.14235,-21.207617 c 0,0 -1.11847,2.46332 -1.76918,3.04292 -0.65072,0.579601 -4.36336,3.672941 -5.2095,4.329117 -0.84615,0.656177 -4.80943,4.1259843 -4.80943,4.1259843 0,0 7.3717,-6.5521443 8.39106,-7.4926213 1.01939,-0.940477 2.17518,-1.965323 2.33924,-2.19964 0.16402,-0.234317 1.05781,-1.80576 1.05781,-1.80576 z"
         id="path59960" />
      <path
         style="fill:#b2b2b2;fill-opacity:1;stroke:none;stroke-width:0.219856px;stroke-linecap:butt;stroke-linejoin:miter;stroke-opacity:1"
         d="m 364.35224,4.6648769 c 0,0 0.10279,1.2987634 -0.33915,1.4937924 -0.44194,0.1950277 -4.52117,-0.398221 -5.76889,-0.2372486 -1.24771,0.1609749 -9.01454,1.269424 -11.99906,3.6909976 -2.9845,2.4215707 -8.46796,9.2231897 -9.26757,11.2678527 -0.79961,2.044672 -2.67975,4.048971 -2.83724,1.621864 -0.15751,-2.427105 0.73147,-7.583044 1.2382,-8.693643 0.50672,-1.1106 2.48432,-3.9723943 2.48432,-3.9723943 0,0 -2.13028,4.0191713 -2.33388,7.4225283 -0.2036,3.403358 -0.2036,3.403358 -0.2036,3.403358 0,0 1.46607,-5.335676 2.92396,-7.344568 1.45789,-2.008893 5.54298,-5.1554197 5.54298,-5.1554197 0,0 -4.53118,3.5995707 -5.78391,7.1203067 -1.25274,3.520736 -1.33557,3.970572 -1.33557,3.970572 0,0 5.41257,-9.3708772 10.17108,-11.2508799 4.7585,-1.8800045 11.01439,-3.3573856 13.49269,-3.0299537 2.47831,0.3274317 3.15472,0.8391821 3.51553,0.4388729 0.36082,-0.4003108 0.50012,-0.7460337 0.50012,-0.7460337 z"
         id="path59962" />
      <path
         style="fill:#b2b2b2;fill-opacity:1;stroke:none;stroke-width:0.219856px;stroke-linecap:butt;stroke-linejoin:miter;stroke-opacity:1"
         d="m 354.25906,-39.514127 c 0,0 -4.2517,0.343328 -6.9076,4.55393 -2.65587,4.210603 -4.01334,6.199715 -4.68788,7.23695 -0.67455,1.037231 -1.12819,0.874901 -1.34908,2.074466 -0.2209,1.199564 -0.37247,0.05319 -1.16828,2.405542 -0.79583,2.352354 -1.33824,1.359129 -1.80599,3.242849 -0.46776,1.883718 -0.0954,1.830532 -0.57064,3.098877 -0.47532,1.268343 -0.74817,1.437088 -0.69621,2.467909 0.0519,1.030823 0.15913,1.761751 -0.16893,2.230388 -0.32808,0.468633 -0.40171,0.868489 -0.31294,1.699384 0.0888,0.8308935 -0.12128,1.3151201 -0.0692,2.345941 0.0519,1.0308218 0.78601,1.6397848 0.95598,2.686198 0.16997,1.0464136 1.83078,5.15687731 1.73874,5.656696 -0.0919,0.49981861 -0.12886,0.69974673 0.23276,1.3618979 0.36162,0.6621497 1.36851,1.1023685 1.5125,1.6333707 0.14401,0.5310036 1.15848,1.5865968 1.15848,1.5865968 0,0 0.16429,0.5848832 0.51372,0.6566495 0.34946,0.071765 1.48629,0.2987626 1.71502,0.5337725 0.22871,0.2350106 1.94477,1.255302 1.94477,1.255302 0,0 -2.01405,-1.699637 -1.82242,-2.0839005 0.19164,-0.3842636 2.01115,-1.7310067 2.01115,-1.7310067 0,0 -2.10181,0.7462681 -2.56656,0.4800747 -0.46475,-0.2661935 -2.33484,-1.4348296 -2.5546,-2.5390215 -0.21977,-1.1041913 0.0752,-1.06521114 -0.49477,-1.90849185 -0.57002,-0.84327875 -0.89104,-1.39766985 -0.58517,-2.07402895 0.30589,-0.6763581 -0.13477,-0.580984 0.50673,-1.110603 0.6415,-0.5296188 1.47681,-0.470457 0.6415,-0.5296188 -0.8353,-0.059159 -1.69822,0.031621 -1.86818,-1.014792 -0.16997,-1.0464143 0.59549,-0.2797098 -0.1056,-1.3962875 -0.70103,-1.1165767 -0.70646,-0.7589088 0.031,-1.4806582 0.73733,-0.7217495 1.88609,-0.7235708 0.96579,-1.3059403 -0.92028,-0.5823688 -1.5802,0.047209 -1.08268,-1.0134078 0.49752,-1.060621 0.54568,-0.337489 0.63936,-1.502663 0.0937,-1.165176 1.10763,-1.747981 0.65182,-2.883357 -0.45579,-1.135377 -0.48933,-2.266161 -0.48933,-2.266161 0,0 0.026,0.51541 0.71023,1.066594 0.68426,0.551186 2.29044,1.019384 2.29044,1.019384 0,0 -2.14104,-0.84605 -1.89631,-2.503247 0.24472,-1.657197 1.39704,-4.293006 1.87401,-5.026442 0.477,-0.733433 0.19945,-0.154661 0.99185,-1.208447 0.79239,-1.053783 0.0441,-0.935441 0.877,-1.513236 0.83297,-0.577793 0.95431,-0.308347 1.0102,-0.843997 0.0559,-0.535657 1.02329,-4.860729 2.12497,-5.040998 1.10168,-0.180268 1.92699,-0.252242 1.61388,-0.872848 -0.31313,-0.620606 0.32191,-0.355693 0.98416,-0.702626 0.66224,-0.346933 1.74939,-1.144561 1.57981,-1.384179 -0.16958,-0.23962 1.73484,-1.761926 2.14672,-2.141935 0.41192,-0.380007 1.06075,-1.814784 0.35796,-1.94384 -0.70281,-0.129055 -5.89773,2.551413 -5.89773,2.551413 0,0 0.17948,-1.207164 1.77772,-2.226888 1.59818,-1.019729 3.54202,-1.595564 3.54202,-1.595564 z"
         id="path59964" />
      <path
         style="fill:#b2b2b2;fill-opacity:1;stroke:none;stroke-width:0.219856px;stroke-linecap:butt;stroke-linejoin:miter;stroke-opacity:1"
         d="m 399.95166,-33.568225 c 0,0 -3.4083,-2.498219 -9.79089,0.651952 -6.38259,3.15017 -9.89274,5.14391 -11.08372,5.703329 -1.19097,0.559419 -0.97337,0.690565 -1.55588,1.22798 -0.58249,0.537414 -0.38759,-1.177562 -1.93587,0.665795 -1.54831,1.843354 -1.4487,1.958909 -1.97597,2.196433 -0.52727,0.237524 -1.57857,-0.618143 -1.79946,0.581423 -0.2209,1.199565 0.23276,1.361897 -0.84021,1.936908 -1.07297,0.575009 -0.88131,0.190747 -2.15678,1.865357 -1.27544,1.674614 -1.0654,1.190386 -1.70313,2.027692 -0.63771,0.837307 -0.77086,-0.409035 -1.12817,0.874903 -0.35731,1.283938 -1.59268,1.427908 -1.95756,2.09647 -0.36489,0.668563 -1.48224,0.828127 -1.66632,1.827765 -0.18407,0.999636 -2.69816,4.1489313 -3.37107,4.5208085 -0.67289,0.3718782 -0.96415,0.640585 -0.96415,0.640585 l -0.34106,0.2109295 c 0,0 0.22408,3.0502795 -0.0283,4.0921028 -0.25228,1.041824 -2.42368,3.31483395 -2.42368,3.31483395 0,0 4.3065,-2.70769335 4.41694,-3.30747595 0.11043,-0.5997826 0.54354,-1.3105303 0.962,-1.6136282 0.41848,-0.3030967 0.43688,-0.4030599 0.48833,-1.0106392 0.0514,-0.6075779 0.52511,-1.2105665 0.52511,-1.2105665 0,0 4.31154,-4.7256839 4.86658,-5.8832309 0.55508,-1.157546 0.062,-1.729517 1.40489,-2.058935 1.34283,-0.329418 1.30914,0.317774 1.5174,-0.813188 0.20826,-1.13096 -0.1646,-0.963008 1.3398,-1.705507 1.50439,-0.742506 1.3038,-0.117365 1.66594,-1.15559 0.36215,-1.038223 1.24029,-3.021942 1.53504,-2.765785 0.29477,0.256156 0.46773,3.030389 0.46773,3.030389 0,0 -0.49838,-1.007104 1.30538,-3.375364 1.80375,-2.368261 3.1359,-3.567948 3.1359,-3.567948 0,0 -0.42259,-0.490261 0.79775,-0.618648 1.22035,-0.128388 0.79008,-0.112829 1.5174,-0.813188 0.72731,-0.70036 10.0661,-5.235246 10.86244,-5.949198 0.79632,-0.713956 1.84169,-1.139021 2.21793,-0.884521 0.37623,0.2545 0.24901,0.28889 0.87212,-0.140765 0.6231,-0.429655 0.33725,-0.518619 0.80933,-0.456249 0.47205,0.06236 0.15861,0.123353 0.99012,-0.125173 0.83153,-0.248526 0.80013,-0.406267 1.09517,-0.367288 0.29503,0.03898 1.92881,0.357232 1.92881,0.357232 z"
         id="path59966" />
    </g>
  </g>
</svg>
