<svg width="32" height="25" viewBox="0 0 32 25" fill="none" xmlns="http://www.w3.org/2000/svg">
<path d="M26.9394 2.16599C30.4748 7.40087 32.2208 13.3057 31.5681 20.1035C31.5654 20.1322 31.5505 20.1586 31.527 20.176C28.8497 22.1558 26.2558 23.3573 23.6982 24.1542C23.6783 24.1602 23.657 24.1599 23.6373 24.1532C23.6176 24.1465 23.6004 24.1337 23.5883 24.1167C22.9974 23.2888 22.4605 22.4159 21.9902 21.4993C21.9632 21.4453 21.9878 21.3803 22.0434 21.359C22.8961 21.0354 23.7068 20.6477 24.4867 20.1886C24.5481 20.1523 24.5521 20.0637 24.4953 20.0211C24.3298 19.8974 24.1658 19.7673 24.0089 19.6373C23.9796 19.6132 23.9401 19.6085 23.9068 19.6247C18.8437 21.9793 13.2974 21.9793 8.17443 19.6247C8.14117 19.6097 8.10165 19.6148 8.07308 19.6385C7.91656 19.7685 7.75221 19.8974 7.58826 20.0211C7.53152 20.0637 7.53621 20.1523 7.59804 20.1886C8.37791 20.639 9.18869 21.0354 10.0402 21.3606C10.0953 21.3818 10.1216 21.4453 10.0942 21.4993C9.63399 22.4171 9.09713 23.2899 8.4953 24.1179C8.46908 24.1514 8.42604 24.1668 8.38534 24.1542C5.83991 23.3573 3.24596 22.1558 0.56866 20.176C0.546356 20.1586 0.530313 20.131 0.527965 20.1023C-0.0175126 14.2223 1.09418 8.26862 5.15239 2.1648C5.16217 2.14865 5.17704 2.13604 5.19426 2.12855C7.19108 1.20563 9.33034 0.526637 11.5663 0.138868C11.6069 0.132563 11.6476 0.151479 11.6688 0.187733C11.945 0.680326 12.2608 1.31203 12.4745 1.82827C14.8313 1.46572 17.2249 1.46572 19.631 1.82827C19.8447 1.32306 20.1495 0.680326 20.4246 0.187733C20.4344 0.169748 20.4496 0.155339 20.468 0.146563C20.4864 0.137788 20.5071 0.135095 20.5271 0.138868C22.7642 0.52782 24.9034 1.20681 26.8987 2.12855C26.9163 2.13604 26.9308 2.14865 26.9394 2.16599ZM13.6726 13.3459C13.6973 11.6076 12.4389 10.1692 10.8592 10.1692C9.29239 10.1692 8.04608 11.595 8.04608 13.3459C8.04608 15.0964 9.31704 16.5221 10.8592 16.5221C12.4263 16.5221 13.6726 15.0964 13.6726 13.3459ZM24.0743 13.3459C24.0989 11.6076 22.8405 10.1692 21.2612 10.1692C19.694 10.1692 18.4477 11.595 18.4477 13.3459C18.4477 15.0964 19.7187 16.5221 21.2612 16.5221C22.8405 16.5221 24.0743 15.0964 24.0743 13.3459Z" fill="#AF3532"/>
</svg>
