<?xml version="1.0" encoding="UTF-8" standalone="no"?>
<svg
   width="34"
   height="34"
   viewBox="0 0 34 34"
   fill="none"
   version="1.1"
   id="svg135"
   sodipodi:docname="Github-Blue.svg"
   inkscape:version="1.2.2 (b0a8486541, 2022-12-01)"
   xmlns:inkscape="http://www.inkscape.org/namespaces/inkscape"
   xmlns:sodipodi="http://sodipodi.sourceforge.net/DTD/sodipodi-0.dtd"
   xmlns="http://www.w3.org/2000/svg"
   xmlns:svg="http://www.w3.org/2000/svg">
  <defs
     id="defs139" />
  <sodipodi:namedview
     id="namedview137"
     pagecolor="#ffffff"
     bordercolor="#000000"
     borderopacity="0.25"
     inkscape:showpageshadow="2"
     inkscape:pageopacity="0.0"
     inkscape:pagecheckerboard="0"
     inkscape:deskcolor="#d1d1d1"
     showgrid="false"
     inkscape:zoom="30.205882"
     inkscape:cx="16.983447"
     inkscape:cy="16.983447"
     inkscape:window-width="2560"
     inkscape:window-height="1403"
     inkscape:window-x="2560"
     inkscape:window-y="0"
     inkscape:window-maximized="1"
     inkscape:current-layer="svg135" />
  <path
     fill-rule="evenodd"
     clip-rule="evenodd"
     d="M16.8878 0.79248C7.57055 0.79248 0.0239868 8.30903 0.0239868 17.5892C0.0239868 25.0218 4.85126 31.2996 11.5546 33.5251C12.3978 33.6721 12.714 33.1682 12.714 32.7273C12.714 32.3284 12.6929 31.0056 12.6929 29.5989C8.4559 30.3758 7.35975 28.5701 7.02247 27.6253C6.83276 27.1424 6.01064 25.6517 5.29393 25.2527C4.7037 24.9378 3.86051 24.161 5.27285 24.14C6.60088 24.119 7.54947 25.3577 7.86566 25.8616C9.38341 28.4021 11.8076 27.6883 12.7773 27.2474C12.9248 26.1556 13.3675 25.4207 13.8523 25.0008C10.1001 24.5809 6.17928 23.1322 6.17928 16.7074C6.17928 14.8808 6.83276 13.369 7.90782 12.1933C7.73919 11.7734 7.14895 10.0517 8.07646 7.74214C8.07646 7.74214 9.48881 7.30122 12.714 9.4638C14.0631 9.08588 15.4965 8.89691 16.93 8.89691C18.3634 8.89691 19.7968 9.08588 21.1459 9.4638C24.3711 7.28023 25.7835 7.74214 25.7835 7.74214C26.711 10.0517 26.1208 11.7734 25.9521 12.1933C27.0272 13.369 27.6807 14.8598 27.6807 16.7074C27.6807 23.1532 23.7387 24.5809 19.9865 25.0008C20.5979 25.5257 21.1248 26.5335 21.1248 28.1082C21.1248 30.3548 21.1038 32.1604 21.1038 32.7273C21.1038 33.1682 21.42 33.6931 22.2632 33.5251C28.9244 31.2996 33.7516 25.0008 33.7516 17.5892C33.7516 8.30903 26.2051 0.79248 16.8878 0.79248Z"
     fill="#AF3532"
     id="path133"
     style="fill:#00695c;fill-opacity:1" />
</svg>
