<?xml version="1.0" encoding="UTF-8" standalone="no"?>
<svg
   width="34"
   height="20"
   viewBox="0 0 34 20"
   fill="none"
   version="1.1"
   id="svg260"
   sodipodi:docname="Medium-Blue.svg"
   inkscape:version="1.2.2 (b0a8486541, 2022-12-01)"
   xmlns:inkscape="http://www.inkscape.org/namespaces/inkscape"
   xmlns:sodipodi="http://sodipodi.sourceforge.net/DTD/sodipodi-0.dtd"
   xmlns="http://www.w3.org/2000/svg"
   xmlns:svg="http://www.w3.org/2000/svg">
  <defs
     id="defs264" />
  <sodipodi:namedview
     id="namedview262"
     pagecolor="#ffffff"
     bordercolor="#000000"
     borderopacity="0.25"
     inkscape:showpageshadow="2"
     inkscape:pageopacity="0.0"
     inkscape:pagecheckerboard="0"
     inkscape:deskcolor="#d1d1d1"
     showgrid="false"
     inkscape:zoom="18.968798"
     inkscape:cx="15.762728"
     inkscape:cy="16.184473"
     inkscape:window-width="1280"
     inkscape:window-height="1403"
     inkscape:window-x="2560"
     inkscape:window-y="0"
     inkscape:window-maximized="0"
     inkscape:current-layer="svg260" />
  <path
     d="M19.1599 9.80192C19.1599 14.9389 14.9256 19.1102 9.68025 19.1102C4.43485 19.1102 0.200623 14.9389 0.200623 9.80192C0.200623 4.6649 4.43485 0.493652 9.68025 0.493652C14.9256 0.493652 19.1599 4.6649 19.1599 9.80192ZM29.5453 9.80192C29.5453 14.6307 27.4177 18.5554 24.8055 18.5554C22.1933 18.5554 20.0657 14.6307 20.0657 9.80192C20.0657 4.97313 22.1933 1.04845 24.8055 1.04845C27.4177 1.04845 29.5453 4.95258 29.5453 9.80192ZM33.8006 9.80192C33.8006 14.1376 33.0633 17.6513 32.1364 17.6513C31.2095 17.6513 30.4722 14.1376 30.4722 9.80192C30.4722 5.46628 31.2095 1.95256 32.1364 1.95256C33.0633 1.95256 33.8006 5.46628 33.8006 9.80192Z"
     fill="#AF3532"
     id="path258"
     style="fill:#00695c;fill-opacity:1" />
</svg>
