<?xml version="1.0" encoding="UTF-8" standalone="no"?>
<svg
   width="28"
   height="25"
   viewBox="0 0 28 25"
   fill="none"
   version="1.1"
   id="svg385"
   sodipodi:docname="TG-Blue-Light.svg"
   inkscape:version="1.2.2 (b0a8486541, 2022-12-01)"
   xmlns:inkscape="http://www.inkscape.org/namespaces/inkscape"
   xmlns:sodipodi="http://sodipodi.sourceforge.net/DTD/sodipodi-0.dtd"
   xmlns="http://www.w3.org/2000/svg"
   xmlns:svg="http://www.w3.org/2000/svg">
  <defs
     id="defs389" />
  <sodipodi:namedview
     id="namedview387"
     pagecolor="#ffffff"
     bordercolor="#000000"
     borderopacity="0.25"
     inkscape:showpageshadow="2"
     inkscape:pageopacity="0.0"
     inkscape:pagecheckerboard="0"
     inkscape:deskcolor="#d1d1d1"
     showgrid="false"
     inkscape:zoom="41.08"
     inkscape:cx="13.997079"
     inkscape:cy="-4.8198637"
     inkscape:window-width="2560"
     inkscape:window-height="1403"
     inkscape:window-x="2560"
     inkscape:window-y="0"
     inkscape:window-maximized="1"
     inkscape:current-layer="svg385" />
  <path
     d="M1.69223 10.9371C1.69223 10.9371 13.899 5.79582 18.1326 3.98544C19.7555 3.26134 25.2591 0.94405 25.2591 0.94405C25.2591 0.94405 27.7993 -0.0696788 27.5876 2.39233C27.517 3.40616 26.9525 6.95436 26.3881 10.7923C25.5413 16.2233 24.6241 22.1612 24.6241 22.1612C24.6241 22.1612 24.483 23.8268 23.2835 24.1164C22.084 24.406 20.1082 23.1027 19.7555 22.8129C19.4732 22.5957 14.4635 19.3371 12.629 17.744C12.135 17.3095 11.5706 16.4406 12.6995 15.4268C15.2397 13.0371 18.2737 10.0682 20.1082 8.18547C20.955 7.31646 21.8016 5.2889 18.2737 7.75091C13.264 11.2992 8.32483 14.6302 8.32483 14.6302C8.32483 14.6302 7.19585 15.3543 5.07909 14.7026C2.96223 14.051 0.492642 13.182 0.492642 13.182C0.492642 13.182 -1.20069 12.0958 1.69223 10.9371Z"
     fill="#AF3532"
     id="path383"
     style="fill:#439889;fill-opacity:1" />
</svg>
