<?xml version="1.0" encoding="UTF-8" standalone="no"?>
<svg
   width="32"
   height="26"
   viewBox="0 0 32 26"
   fill="none"
   version="1.1"
   id="svg510"
   sodipodi:docname="Twitter-Bluesvg.svg"
   inkscape:version="1.2.2 (b0a8486541, 2022-12-01)"
   xmlns:inkscape="http://www.inkscape.org/namespaces/inkscape"
   xmlns:sodipodi="http://sodipodi.sourceforge.net/DTD/sodipodi-0.dtd"
   xmlns="http://www.w3.org/2000/svg"
   xmlns:svg="http://www.w3.org/2000/svg">
  <defs
     id="defs514" />
  <sodipodi:namedview
     id="namedview512"
     pagecolor="#ffffff"
     bordercolor="#000000"
     borderopacity="0.25"
     inkscape:showpageshadow="2"
     inkscape:pageopacity="0.0"
     inkscape:pagecheckerboard="0"
     inkscape:deskcolor="#d1d1d1"
     showgrid="false"
     inkscape:zoom="39.125"
     inkscape:cx="16"
     inkscape:cy="13.009585"
     inkscape:window-width="2560"
     inkscape:window-height="1403"
     inkscape:window-x="2560"
     inkscape:window-y="0"
     inkscape:window-maximized="1"
     inkscape:current-layer="svg510" />
  <path
     d="M30.8913 3.50079C29.9006 3.92753 28.8591 4.22468 27.7925 4.38491C28.2912 4.29935 29.0249 3.40097 29.317 3.03734C29.7607 2.48884 30.0989 1.86268 30.3143 1.19067C30.3143 1.14076 30.3642 1.06946 30.3143 1.03381C30.2892 1.02008 30.261 1.01289 30.2324 1.01289C30.2037 1.01289 30.1756 1.02008 30.1504 1.03381C28.9923 1.66155 27.7597 2.14066 26.4818 2.45981C26.4372 2.47343 26.3898 2.47465 26.3446 2.46335C26.2995 2.45204 26.2582 2.42864 26.2253 2.39564C26.1258 2.27709 26.0188 2.16515 25.9047 2.06053C25.3835 1.59312 24.7922 1.21057 24.1523 0.926859C23.2886 0.572196 22.3557 0.418599 21.4239 0.477668C20.5199 0.534814 19.6373 0.777512 18.8309 1.19067C18.0369 1.62626 17.339 2.21802 16.7793 2.93039C16.1905 3.66361 15.7654 4.51452 15.5327 5.4259C15.3407 6.2928 15.3189 7.18878 15.4686 8.064C15.4686 8.21373 15.4686 8.23512 15.3403 8.21373C10.2611 7.46508 6.09379 5.66119 2.68867 1.78959C2.53908 1.61847 2.46072 1.61847 2.33961 1.78959C0.85789 4.04267 1.57738 7.60768 3.42954 9.36879C3.67887 9.60408 3.93532 9.83224 4.20602 10.0461C3.35682 9.9858 2.52835 9.75547 1.76972 9.36879C1.62725 9.2761 1.54889 9.32601 1.54176 9.49713C1.52157 9.73437 1.52157 9.97289 1.54176 10.2101C1.6904 11.3471 2.13807 12.4241 2.83898 13.3311C3.5399 14.2381 4.46891 14.9425 5.53102 15.3723C5.78994 15.4833 6.05973 15.5669 6.336 15.6218C5.54985 15.7767 4.74355 15.8008 3.94957 15.6931C3.7786 15.6575 3.71448 15.7501 3.7786 15.9141C4.82578 18.7661 7.09823 19.636 8.76517 20.1208C8.99313 20.1565 9.22109 20.1565 9.47754 20.2135C9.47754 20.2135 9.47754 20.2135 9.4348 20.2563C8.94326 21.1547 6.95576 21.7607 6.04393 22.0745C4.3796 22.6728 2.60512 22.9015 0.843643 22.7447C0.565819 22.7019 0.501706 22.709 0.430469 22.7447C0.359233 22.7803 0.430469 22.8588 0.50883 22.9301C0.865014 23.1654 1.2212 23.3721 1.59163 23.5718C2.69441 24.1738 3.86026 24.652 5.06798 24.9978C11.3226 26.7232 18.3608 25.4541 23.0553 20.7839C26.7453 17.1191 28.0418 12.0639 28.0418 7.00163C28.0418 6.80912 28.2769 6.69504 28.4123 6.59522C29.3458 5.86717 30.1689 5.00736 30.8557 4.04267C30.9746 3.89887 31.0356 3.71578 31.0267 3.52931C31.0267 3.42236 31.0267 3.44375 30.8913 3.50079Z"
     fill="#AF3532"
     id="path508"
     style="fill:#00695c;fill-opacity:1" />
</svg>
